G04*
G04 #@! TF.GenerationSoftware,Altium Limited,Altium Designer,24.3.1 (35)*
G04*
G04 Layer_Color=2752767*
%FSLAX44Y44*%
%MOMM*%
G71*
G04*
G04 #@! TF.SameCoordinates,268BF101-0F90-4EF0-BC03-07382AAEC2E5*
G04*
G04*
G04 #@! TF.FilePolarity,Positive*
G04*
G01*
G75*
%ADD13C,0.1270*%
%ADD61C,0.1693*%
D13*
X580390Y745940D02*
Y756100D01*
X590550D01*
Y745940D01*
X580390D01*
Y789940D02*
Y800100D01*
X590550D01*
Y789940D01*
X580390D01*
X596900Y749300D02*
X591820Y759460D01*
X601980D01*
X596900Y749300D01*
X541020Y786130D02*
X535940Y796290D01*
X546100D01*
X541020Y786130D01*
X598170Y796290D02*
X593090Y806450D01*
X603250D01*
X598170Y796290D01*
X867410Y835660D02*
X862330Y845820D01*
X872490D01*
X867410Y835660D01*
X886460Y824230D02*
X881380Y834390D01*
X891540D01*
X886460Y824230D01*
X895350Y831850D02*
X890270Y842010D01*
X900430D01*
X895350Y831850D01*
X642532Y831130D02*
X637452Y841290D01*
X647612D01*
X642532Y831130D01*
X1017270Y866140D02*
X1012190Y876300D01*
X1022350D01*
X1017270Y866140D01*
X561340Y876300D02*
X556260Y886460D01*
X566420D01*
X561340Y876300D01*
X718820Y819150D02*
X713740Y829310D01*
X723900D01*
X718820Y819150D01*
X800100Y778510D02*
X795020Y788670D01*
X805180D01*
X800100Y778510D01*
X830580Y786130D02*
X825500Y796290D01*
X835660D01*
X830580Y786130D01*
X815340Y769620D02*
X810260Y779780D01*
X820420D01*
X815340Y769620D01*
X824230Y797560D02*
X819150Y807720D01*
X829310D01*
X824230Y797560D01*
X848360Y784860D02*
X843280Y795020D01*
X853440D01*
X848360Y784860D01*
X916940Y858520D02*
X911860Y868680D01*
X922020D01*
X916940Y858520D01*
Y845820D02*
X911860Y855980D01*
X922020D01*
X916940Y845820D01*
X807720Y798830D02*
X802640Y808990D01*
X812800D01*
X807720Y798830D01*
X962660Y730250D02*
X957580Y740410D01*
X967740D01*
X962660Y730250D01*
X815340Y889000D02*
X810260Y899160D01*
X820420D01*
X815340Y889000D01*
X819150Y739140D02*
X814070Y749300D01*
X824230D01*
X819150Y739140D01*
X886460Y707390D02*
X881380Y717550D01*
X891540D01*
X886460Y707390D01*
X704850Y869950D02*
X699770Y880110D01*
X709930D01*
X704850Y869950D01*
X765810Y873760D02*
X760730Y883920D01*
X770890D01*
X765810Y873760D01*
X698500Y698500D02*
X693420Y708660D01*
X703580D01*
X698500Y698500D01*
X631190Y873760D02*
X626110Y883920D01*
X636270D01*
X631190Y873760D01*
X618490Y695960D02*
X613410Y706120D01*
X623570D01*
X618490Y695960D01*
D61*
X876960Y885190D02*
G03*
X876960Y885190I-5080J0D01*
G01*
X902360D02*
G03*
X902360Y885190I-5080J0D01*
G01*
X990600Y836930D02*
G03*
X990600Y836930I-5080J0D01*
G01*
Y811530D02*
G03*
X990600Y811530I-5080J0D01*
G01*
Y786130D02*
G03*
X990600Y786130I-5080J0D01*
G01*
Y760730D02*
G03*
X990600Y760730I-5080J0D01*
G01*
Y735330D02*
G03*
X990600Y735330I-5080J0D01*
G01*
X810260Y725170D02*
G03*
X810260Y725170I-5080J0D01*
G01*
X784860D02*
G03*
X784860Y725170I-5080J0D01*
G01*
X759460D02*
G03*
X759460Y725170I-5080J0D01*
G01*
X734060D02*
G03*
X734060Y725170I-5080J0D01*
G01*
M02*
