G04*
G04 #@! TF.GenerationSoftware,Altium Limited,Altium Designer,24.3.1 (35)*
G04*
G04 Layer_Color=65535*
%FSLAX44Y44*%
%MOMM*%
G71*
G04*
G04 #@! TF.SameCoordinates,268BF101-0F90-4EF0-BC03-07382AAEC2E5*
G04*
G04*
G04 #@! TF.FilePolarity,Positive*
G04*
G01*
G75*
%ADD10C,0.2000*%
%ADD11C,0.2500*%
%ADD12C,0.2032*%
%ADD13C,0.1270*%
%ADD14C,0.1000*%
%ADD15C,0.1524*%
%ADD16C,0.2540*%
G36*
X544830Y891271D02*
X542800Y889988D01*
X542786D01*
X542758Y889960D01*
X542715Y889932D01*
X542659Y889890D01*
X542504Y889791D01*
X542307Y889664D01*
X542095Y889509D01*
X541870Y889354D01*
X541658Y889199D01*
X541461Y889058D01*
X541447Y889044D01*
X541390Y889001D01*
X541306Y888931D01*
X541207Y888832D01*
X540996Y888621D01*
X540897Y888508D01*
X540812Y888395D01*
X540798Y888381D01*
X540784Y888353D01*
X540756Y888297D01*
X540714Y888212D01*
X540671Y888128D01*
X540629Y888029D01*
X540559Y887803D01*
Y887789D01*
X540545Y887761D01*
Y887705D01*
X540530Y887634D01*
X540516Y887535D01*
Y887423D01*
X540502Y887268D01*
Y885604D01*
X544830D01*
Y884307D01*
X535075D01*
Y888832D01*
X535089Y888945D01*
Y889072D01*
X535103Y889368D01*
X535145Y889678D01*
X535188Y890016D01*
X535258Y890327D01*
X535300Y890482D01*
X535343Y890609D01*
Y890623D01*
X535357Y890637D01*
X535399Y890721D01*
X535456Y890848D01*
X535554Y891003D01*
X535681Y891172D01*
X535850Y891356D01*
X536048Y891525D01*
X536273Y891694D01*
X536287D01*
X536301Y891708D01*
X536386Y891765D01*
X536527Y891821D01*
X536710Y891906D01*
X536922Y891976D01*
X537175Y892047D01*
X537443Y892089D01*
X537739Y892103D01*
X537753D01*
X537781D01*
X537838D01*
X537908Y892089D01*
X538007D01*
X538106Y892075D01*
X538345Y892018D01*
X538627Y891934D01*
X538923Y891821D01*
X539219Y891652D01*
X539360Y891539D01*
X539501Y891426D01*
X539515Y891412D01*
X539529Y891398D01*
X539572Y891356D01*
X539614Y891299D01*
X539670Y891229D01*
X539727Y891144D01*
X539797Y891031D01*
X539882Y890919D01*
X539952Y890778D01*
X540023Y890623D01*
X540107Y890453D01*
X540178Y890270D01*
X540234Y890059D01*
X540305Y889847D01*
X540347Y889608D01*
X540389Y889354D01*
X540404Y889382D01*
X540432Y889438D01*
X540488Y889523D01*
X540545Y889636D01*
X540700Y889890D01*
X540798Y890016D01*
X540883Y890129D01*
X540911Y890157D01*
X540981Y890228D01*
X541094Y890341D01*
X541235Y890482D01*
X541433Y890637D01*
X541644Y890820D01*
X541898Y891003D01*
X542180Y891201D01*
X544830Y892878D01*
Y891271D01*
D02*
G37*
G36*
Y880402D02*
Y879134D01*
X537401Y877090D01*
X537387D01*
X537359Y877076D01*
X537316Y877061D01*
X537246Y877047D01*
X537091Y877005D01*
X536908Y876963D01*
X536710Y876906D01*
X536527Y876850D01*
X536372Y876808D01*
X536301Y876794D01*
X536259Y876779D01*
X536273D01*
X536287Y876765D01*
X536372Y876751D01*
X536499Y876723D01*
X536654Y876681D01*
X536823Y876638D01*
X537020Y876582D01*
X537218Y876540D01*
X537401Y876483D01*
X544830Y874425D01*
Y873072D01*
X535075Y870520D01*
Y871860D01*
X541475Y873312D01*
X541489D01*
X541517Y873326D01*
X541574Y873340D01*
X541644Y873354D01*
X541743Y873368D01*
X541841Y873396D01*
X541968Y873424D01*
X542109Y873453D01*
X542405Y873523D01*
X542744Y873594D01*
X543110Y873664D01*
X543477Y873735D01*
X543463D01*
X543406Y873749D01*
X543336Y873777D01*
X543223Y873791D01*
X543110Y873819D01*
X542969Y873861D01*
X542659Y873932D01*
X542349Y874016D01*
X542194Y874045D01*
X542053Y874087D01*
X541926Y874115D01*
X541813Y874143D01*
X541729Y874172D01*
X541672Y874186D01*
X535075Y876032D01*
Y877597D01*
X540023Y878979D01*
X540037D01*
X540107Y879007D01*
X540206Y879035D01*
X540333Y879063D01*
X540502Y879105D01*
X540686Y879162D01*
X540897Y879218D01*
X541137Y879275D01*
X541404Y879345D01*
X541672Y879401D01*
X542250Y879528D01*
X542856Y879655D01*
X543477Y879754D01*
X543463D01*
X543434Y879768D01*
X543378D01*
X543307Y879796D01*
X543223Y879810D01*
X543124Y879838D01*
X542997Y879853D01*
X542856Y879895D01*
X542546Y879965D01*
X542180Y880050D01*
X541785Y880135D01*
X541348Y880247D01*
X535075Y881770D01*
Y883081D01*
X544830Y880402D01*
D02*
G37*
G36*
X538120Y869759D02*
X538218Y869745D01*
X538345Y869731D01*
X538486Y869703D01*
X538641Y869675D01*
X538966Y869576D01*
X539135Y869520D01*
X539318Y869435D01*
X539501Y869336D01*
X539670Y869238D01*
X539840Y869111D01*
X540009Y868970D01*
X540023Y868956D01*
X540051Y868927D01*
X540093Y868885D01*
X540136Y868815D01*
X540206Y868730D01*
X540277Y868617D01*
X540361Y868476D01*
X540432Y868321D01*
X540516Y868138D01*
X540601Y867926D01*
X540671Y867701D01*
X540728Y867433D01*
X540784Y867151D01*
X540826Y866841D01*
X540855Y866489D01*
X540869Y866122D01*
Y863627D01*
X544830D01*
Y862330D01*
X535075D01*
Y866333D01*
X535089Y866545D01*
X535103Y866785D01*
X535117Y867038D01*
X535145Y867278D01*
X535174Y867489D01*
Y867518D01*
X535202Y867616D01*
X535230Y867743D01*
X535272Y867912D01*
X535343Y868096D01*
X535427Y868293D01*
X535526Y868504D01*
X535639Y868688D01*
X535653Y868716D01*
X535695Y868772D01*
X535780Y868857D01*
X535878Y868970D01*
X536005Y869097D01*
X536174Y869223D01*
X536358Y869364D01*
X536569Y869477D01*
X536597Y869491D01*
X536668Y869520D01*
X536795Y869576D01*
X536964Y869632D01*
X537161Y869675D01*
X537387Y869731D01*
X537640Y869759D01*
X537908Y869773D01*
X537923D01*
X537965D01*
X538021D01*
X538120Y869759D01*
D02*
G37*
G36*
X998282Y897219D02*
X998564Y897205D01*
X998846Y897176D01*
X999128Y897134D01*
X999367Y897092D01*
X999381D01*
X999409Y897078D01*
X999452D01*
X999508Y897049D01*
X999663Y897007D01*
X999861Y896937D01*
X1000086Y896838D01*
X1000326Y896711D01*
X1000565Y896570D01*
X1000791Y896387D01*
X1000805Y896373D01*
X1000819Y896359D01*
X1000862Y896317D01*
X1000918Y896274D01*
X1001059Y896133D01*
X1001228Y895936D01*
X1001411Y895696D01*
X1001609Y895414D01*
X1001792Y895090D01*
X1001947Y894724D01*
Y894709D01*
X1001961Y894681D01*
X1001989Y894625D01*
X1002003Y894540D01*
X1002046Y894442D01*
X1002074Y894329D01*
X1002102Y894202D01*
X1002144Y894047D01*
X1002187Y893892D01*
X1002215Y893708D01*
X1002285Y893314D01*
X1002328Y892877D01*
X1002342Y892398D01*
Y892383D01*
Y892355D01*
Y892285D01*
Y892214D01*
X1002328Y892116D01*
Y892003D01*
X1002314Y891735D01*
X1002271Y891425D01*
X1002229Y891101D01*
X1002158Y890762D01*
X1002074Y890424D01*
Y890410D01*
X1002060Y890382D01*
X1002046Y890339D01*
X1002031Y890283D01*
X1001975Y890128D01*
X1001891Y889930D01*
X1001806Y889705D01*
X1001693Y889479D01*
X1001552Y889240D01*
X1001411Y889014D01*
X1001397Y888986D01*
X1001341Y888915D01*
X1001256Y888817D01*
X1001143Y888690D01*
X1001016Y888549D01*
X1000862Y888408D01*
X1000706Y888253D01*
X1000523Y888126D01*
X1000495Y888112D01*
X1000439Y888070D01*
X1000340Y888013D01*
X1000199Y887943D01*
X1000030Y887858D01*
X999832Y887788D01*
X999607Y887703D01*
X999353Y887633D01*
X999325D01*
X999283Y887619D01*
X999240Y887605D01*
X999099Y887590D01*
X998902Y887562D01*
X998676Y887534D01*
X998409Y887506D01*
X998113Y887492D01*
X997788Y887478D01*
X994278D01*
Y897233D01*
X998028D01*
X998282Y897219D01*
D02*
G37*
G36*
X992262Y896077D02*
X986497D01*
Y893102D01*
X991896D01*
Y891946D01*
X986497D01*
Y888634D01*
X992488D01*
Y887478D01*
X985200D01*
Y897233D01*
X992262D01*
Y896077D01*
D02*
G37*
G36*
X979998Y897219D02*
X980125D01*
X980421Y897205D01*
X980731Y897162D01*
X981069Y897120D01*
X981379Y897049D01*
X981535Y897007D01*
X981661Y896965D01*
X981675D01*
X981690Y896951D01*
X981774Y896908D01*
X981901Y896852D01*
X982056Y896753D01*
X982225Y896627D01*
X982409Y896457D01*
X982578Y896260D01*
X982747Y896034D01*
Y896020D01*
X982761Y896006D01*
X982817Y895922D01*
X982874Y895781D01*
X982958Y895598D01*
X983029Y895386D01*
X983099Y895132D01*
X983141Y894865D01*
X983156Y894568D01*
Y894554D01*
Y894526D01*
Y894470D01*
X983141Y894399D01*
Y894301D01*
X983127Y894202D01*
X983071Y893962D01*
X982987Y893680D01*
X982874Y893384D01*
X982704Y893088D01*
X982592Y892947D01*
X982479Y892806D01*
X982465Y892792D01*
X982451Y892778D01*
X982409Y892736D01*
X982352Y892693D01*
X982282Y892637D01*
X982197Y892581D01*
X982084Y892510D01*
X981972Y892426D01*
X981831Y892355D01*
X981675Y892285D01*
X981506Y892200D01*
X981323Y892130D01*
X981112Y892073D01*
X980900Y892003D01*
X980660Y891961D01*
X980407Y891918D01*
X980435Y891904D01*
X980491Y891876D01*
X980576Y891820D01*
X980689Y891763D01*
X980942Y891608D01*
X981069Y891509D01*
X981182Y891425D01*
X981210Y891397D01*
X981281Y891326D01*
X981394Y891213D01*
X981535Y891072D01*
X981690Y890875D01*
X981873Y890664D01*
X982056Y890410D01*
X982253Y890128D01*
X983931Y887478D01*
X982324D01*
X981041Y889508D01*
Y889522D01*
X981013Y889550D01*
X980985Y889592D01*
X980942Y889649D01*
X980844Y889804D01*
X980717Y890001D01*
X980562Y890212D01*
X980407Y890438D01*
X980252Y890649D01*
X980111Y890847D01*
X980097Y890861D01*
X980054Y890917D01*
X979984Y891002D01*
X979885Y891101D01*
X979674Y891312D01*
X979561Y891411D01*
X979448Y891495D01*
X979434Y891509D01*
X979406Y891524D01*
X979350Y891552D01*
X979265Y891594D01*
X979180Y891636D01*
X979082Y891679D01*
X978856Y891749D01*
X978842D01*
X978814Y891763D01*
X978757D01*
X978687Y891777D01*
X978588Y891791D01*
X978475D01*
X978320Y891805D01*
X976657D01*
Y887478D01*
X975360D01*
Y897233D01*
X979885D01*
X979998Y897219D01*
D02*
G37*
G36*
X997236Y688494D02*
Y688480D01*
Y688423D01*
Y688353D01*
Y688254D01*
X997222Y688127D01*
Y687986D01*
X997208Y687817D01*
X997194Y687648D01*
X997151Y687267D01*
X997095Y686873D01*
X997010Y686492D01*
X996954Y686309D01*
X996898Y686140D01*
Y686125D01*
X996884Y686097D01*
X996855Y686055D01*
X996827Y685999D01*
X996743Y685844D01*
X996616Y685646D01*
X996447Y685421D01*
X996249Y685195D01*
X995995Y684955D01*
X995685Y684744D01*
X995671D01*
X995643Y684716D01*
X995601Y684702D01*
X995530Y684659D01*
X995446Y684617D01*
X995333Y684575D01*
X995220Y684532D01*
X995079Y684476D01*
X994924Y684420D01*
X994755Y684378D01*
X994572Y684335D01*
X994360Y684293D01*
X994149Y684265D01*
X993923Y684237D01*
X993416Y684208D01*
X993289D01*
X993190Y684222D01*
X993077D01*
X992936Y684237D01*
X992781Y684251D01*
X992626Y684265D01*
X992274Y684321D01*
X991893Y684406D01*
X991527Y684518D01*
X991174Y684673D01*
X991160D01*
X991132Y684702D01*
X991090Y684730D01*
X991033Y684758D01*
X990878Y684871D01*
X990695Y685026D01*
X990483Y685223D01*
X990286Y685449D01*
X990089Y685731D01*
X989934Y686041D01*
Y686055D01*
X989920Y686083D01*
X989906Y686140D01*
X989877Y686210D01*
X989849Y686295D01*
X989821Y686407D01*
X989779Y686534D01*
X989751Y686689D01*
X989722Y686859D01*
X989680Y687042D01*
X989652Y687239D01*
X989624Y687451D01*
X989595Y687690D01*
X989581Y687944D01*
X989567Y688212D01*
Y688494D01*
Y694133D01*
X990864D01*
Y688494D01*
Y688480D01*
Y688437D01*
Y688367D01*
Y688282D01*
X990878Y688184D01*
Y688057D01*
X990892Y687789D01*
X990920Y687479D01*
X990963Y687169D01*
X991019Y686873D01*
X991047Y686746D01*
X991090Y686619D01*
X991104Y686591D01*
X991132Y686520D01*
X991202Y686422D01*
X991287Y686281D01*
X991386Y686140D01*
X991527Y685984D01*
X991696Y685829D01*
X991893Y685703D01*
X991921Y685688D01*
X991992Y685646D01*
X992119Y685604D01*
X992288Y685547D01*
X992485Y685477D01*
X992739Y685435D01*
X993007Y685393D01*
X993303Y685378D01*
X993444D01*
X993529Y685393D01*
X993655D01*
X993782Y685407D01*
X994092Y685463D01*
X994431Y685533D01*
X994755Y685646D01*
X995065Y685801D01*
X995206Y685900D01*
X995333Y686013D01*
X995347Y686027D01*
X995361Y686041D01*
X995389Y686083D01*
X995432Y686140D01*
X995474Y686224D01*
X995530Y686309D01*
X995587Y686436D01*
X995643Y686562D01*
X995699Y686718D01*
X995742Y686901D01*
X995798Y687112D01*
X995840Y687338D01*
X995883Y687592D01*
X995911Y687859D01*
X995939Y688170D01*
Y688494D01*
Y694133D01*
X997236D01*
Y688494D01*
D02*
G37*
G36*
X1006469Y692977D02*
X1000704D01*
Y690002D01*
X1006103D01*
Y688846D01*
X1000704D01*
Y685533D01*
X1006695D01*
Y684378D01*
X999407D01*
Y694133D01*
X1006469D01*
Y692977D01*
D02*
G37*
G36*
X983210Y685533D02*
X988017D01*
Y684378D01*
X981913D01*
Y694133D01*
X983210D01*
Y685533D01*
D02*
G37*
G36*
X976753Y694118D02*
X976866D01*
X977120Y694090D01*
X977402Y694062D01*
X977698Y694006D01*
X977994Y693935D01*
X978261Y693837D01*
X978276D01*
X978290Y693822D01*
X978374Y693780D01*
X978501Y693710D01*
X978642Y693611D01*
X978811Y693484D01*
X978995Y693329D01*
X979164Y693132D01*
X979319Y692920D01*
X979333Y692892D01*
X979375Y692807D01*
X979446Y692695D01*
X979516Y692525D01*
X979587Y692328D01*
X979657Y692117D01*
X979699Y691877D01*
X979713Y691637D01*
Y691609D01*
Y691539D01*
X979699Y691412D01*
X979671Y691257D01*
X979629Y691074D01*
X979558Y690876D01*
X979474Y690679D01*
X979361Y690467D01*
X979347Y690439D01*
X979305Y690383D01*
X979220Y690270D01*
X979107Y690157D01*
X978966Y690016D01*
X978797Y689861D01*
X978586Y689720D01*
X978346Y689579D01*
X978360D01*
X978388Y689565D01*
X978431Y689551D01*
X978487Y689523D01*
X978656Y689466D01*
X978854Y689368D01*
X979065Y689241D01*
X979305Y689086D01*
X979516Y688903D01*
X979713Y688677D01*
X979727Y688649D01*
X979784Y688564D01*
X979868Y688437D01*
X979953Y688268D01*
X980038Y688043D01*
X980122Y687803D01*
X980179Y687521D01*
X980193Y687211D01*
Y687197D01*
Y687183D01*
Y687098D01*
X980179Y686957D01*
X980150Y686788D01*
X980122Y686591D01*
X980066Y686379D01*
X979995Y686154D01*
X979897Y685928D01*
X979883Y685900D01*
X979840Y685829D01*
X979784Y685731D01*
X979699Y685590D01*
X979587Y685449D01*
X979474Y685294D01*
X979333Y685139D01*
X979178Y685012D01*
X979164Y684998D01*
X979107Y684955D01*
X979009Y684899D01*
X978882Y684843D01*
X978727Y684758D01*
X978543Y684673D01*
X978346Y684603D01*
X978106Y684532D01*
X978078D01*
X977994Y684504D01*
X977853Y684490D01*
X977669Y684462D01*
X977444Y684434D01*
X977176Y684406D01*
X976880Y684392D01*
X976542Y684378D01*
X972820D01*
Y694133D01*
X976654D01*
X976753Y694118D01*
D02*
G37*
G36*
X1016763Y840338D02*
X1016861D01*
X1017129Y840310D01*
X1017425Y840267D01*
X1017735Y840197D01*
X1018074Y840112D01*
X1018384Y839999D01*
X1018398D01*
X1018426Y839985D01*
X1018468Y839957D01*
X1018525Y839929D01*
X1018666Y839858D01*
X1018849Y839732D01*
X1019060Y839591D01*
X1019272Y839407D01*
X1019469Y839196D01*
X1019652Y838956D01*
Y838942D01*
X1019667Y838928D01*
X1019695Y838886D01*
X1019723Y838843D01*
X1019793Y838702D01*
X1019878Y838519D01*
X1019977Y838294D01*
X1020047Y838026D01*
X1020118Y837744D01*
X1020146Y837434D01*
X1018905Y837335D01*
Y837349D01*
Y837377D01*
X1018891Y837420D01*
X1018877Y837490D01*
X1018835Y837645D01*
X1018779Y837857D01*
X1018694Y838082D01*
X1018567Y838308D01*
X1018412Y838519D01*
X1018215Y838717D01*
X1018186Y838731D01*
X1018116Y838787D01*
X1017975Y838872D01*
X1017792Y838956D01*
X1017552Y839041D01*
X1017270Y839125D01*
X1016918Y839182D01*
X1016523Y839196D01*
X1016326D01*
X1016241Y839182D01*
X1016128Y839168D01*
X1015874Y839139D01*
X1015593Y839083D01*
X1015311Y839013D01*
X1015043Y838900D01*
X1014930Y838829D01*
X1014817Y838759D01*
X1014789Y838745D01*
X1014733Y838688D01*
X1014648Y838590D01*
X1014564Y838477D01*
X1014465Y838322D01*
X1014380Y838153D01*
X1014324Y837955D01*
X1014296Y837730D01*
Y837701D01*
Y837645D01*
X1014310Y837546D01*
X1014338Y837434D01*
X1014380Y837293D01*
X1014451Y837152D01*
X1014535Y837011D01*
X1014662Y836870D01*
X1014676Y836856D01*
X1014747Y836813D01*
X1014803Y836771D01*
X1014859Y836743D01*
X1014944Y836701D01*
X1015043Y836644D01*
X1015170Y836602D01*
X1015311Y836546D01*
X1015466Y836489D01*
X1015649Y836419D01*
X1015846Y836362D01*
X1016072Y836292D01*
X1016326Y836235D01*
X1016608Y836165D01*
X1016622D01*
X1016678Y836151D01*
X1016763Y836137D01*
X1016861Y836109D01*
X1016988Y836080D01*
X1017143Y836038D01*
X1017298Y835996D01*
X1017467Y835954D01*
X1017834Y835855D01*
X1018186Y835756D01*
X1018356Y835700D01*
X1018511Y835643D01*
X1018652Y835601D01*
X1018764Y835545D01*
X1018779D01*
X1018807Y835531D01*
X1018849Y835502D01*
X1018905Y835474D01*
X1019060Y835390D01*
X1019244Y835277D01*
X1019455Y835122D01*
X1019667Y834953D01*
X1019864Y834755D01*
X1020033Y834544D01*
X1020047Y834516D01*
X1020104Y834445D01*
X1020160Y834318D01*
X1020245Y834149D01*
X1020315Y833952D01*
X1020386Y833712D01*
X1020428Y833444D01*
X1020442Y833162D01*
Y833148D01*
Y833134D01*
Y833092D01*
Y833035D01*
X1020414Y832880D01*
X1020386Y832683D01*
X1020329Y832457D01*
X1020259Y832218D01*
X1020146Y831964D01*
X1019991Y831696D01*
Y831682D01*
X1019977Y831668D01*
X1019906Y831583D01*
X1019808Y831457D01*
X1019667Y831316D01*
X1019483Y831146D01*
X1019258Y830963D01*
X1019004Y830794D01*
X1018708Y830639D01*
X1018694D01*
X1018666Y830625D01*
X1018623Y830611D01*
X1018567Y830583D01*
X1018483Y830554D01*
X1018384Y830512D01*
X1018158Y830456D01*
X1017890Y830385D01*
X1017566Y830315D01*
X1017214Y830272D01*
X1016833Y830258D01*
X1016608D01*
X1016495Y830272D01*
X1016368D01*
X1016227Y830286D01*
X1016058Y830301D01*
X1015705Y830357D01*
X1015339Y830413D01*
X1014972Y830512D01*
X1014620Y830639D01*
X1014606D01*
X1014578Y830653D01*
X1014535Y830681D01*
X1014479Y830709D01*
X1014310Y830794D01*
X1014112Y830921D01*
X1013887Y831090D01*
X1013647Y831287D01*
X1013422Y831527D01*
X1013210Y831795D01*
Y831809D01*
X1013182Y831837D01*
X1013168Y831880D01*
X1013126Y831936D01*
X1013097Y832006D01*
X1013055Y832091D01*
X1012956Y832302D01*
X1012858Y832570D01*
X1012773Y832866D01*
X1012717Y833205D01*
X1012689Y833557D01*
X1013901Y833670D01*
Y833656D01*
Y833642D01*
X1013915Y833599D01*
Y833543D01*
X1013943Y833416D01*
X1013986Y833233D01*
X1014042Y833049D01*
X1014098Y832838D01*
X1014197Y832641D01*
X1014296Y832457D01*
X1014310Y832443D01*
X1014352Y832387D01*
X1014423Y832288D01*
X1014535Y832190D01*
X1014676Y832063D01*
X1014831Y831936D01*
X1015043Y831809D01*
X1015268Y831696D01*
X1015282D01*
X1015296Y831682D01*
X1015339Y831668D01*
X1015381Y831654D01*
X1015522Y831612D01*
X1015705Y831555D01*
X1015931Y831499D01*
X1016185Y831457D01*
X1016467Y831428D01*
X1016777Y831414D01*
X1016904D01*
X1017045Y831428D01*
X1017214Y831442D01*
X1017411Y831471D01*
X1017637Y831499D01*
X1017862Y831555D01*
X1018074Y831626D01*
X1018102Y831640D01*
X1018172Y831668D01*
X1018271Y831724D01*
X1018398Y831781D01*
X1018525Y831880D01*
X1018666Y831978D01*
X1018807Y832091D01*
X1018920Y832232D01*
X1018934Y832246D01*
X1018962Y832302D01*
X1019004Y832373D01*
X1019060Y832486D01*
X1019117Y832598D01*
X1019159Y832739D01*
X1019187Y832894D01*
X1019201Y833064D01*
Y833078D01*
Y833148D01*
X1019187Y833233D01*
X1019173Y833346D01*
X1019131Y833458D01*
X1019089Y833599D01*
X1019018Y833740D01*
X1018920Y833867D01*
X1018905Y833881D01*
X1018863Y833923D01*
X1018807Y833980D01*
X1018708Y834064D01*
X1018595Y834149D01*
X1018440Y834248D01*
X1018257Y834346D01*
X1018046Y834431D01*
X1018031Y834445D01*
X1017961Y834459D01*
X1017848Y834501D01*
X1017778Y834516D01*
X1017679Y834544D01*
X1017580Y834586D01*
X1017453Y834614D01*
X1017312Y834657D01*
X1017143Y834699D01*
X1016974Y834741D01*
X1016777Y834798D01*
X1016551Y834854D01*
X1016311Y834910D01*
X1016297D01*
X1016255Y834924D01*
X1016185Y834939D01*
X1016100Y834967D01*
X1015987Y834995D01*
X1015860Y835023D01*
X1015579Y835108D01*
X1015268Y835206D01*
X1014944Y835305D01*
X1014662Y835404D01*
X1014535Y835460D01*
X1014423Y835517D01*
X1014408D01*
X1014394Y835531D01*
X1014310Y835587D01*
X1014183Y835658D01*
X1014042Y835770D01*
X1013873Y835897D01*
X1013704Y836052D01*
X1013534Y836235D01*
X1013393Y836433D01*
X1013379Y836461D01*
X1013337Y836532D01*
X1013281Y836644D01*
X1013224Y836785D01*
X1013168Y836969D01*
X1013111Y837180D01*
X1013069Y837405D01*
X1013055Y837645D01*
Y837659D01*
Y837673D01*
Y837716D01*
Y837772D01*
X1013083Y837913D01*
X1013111Y838096D01*
X1013154Y838308D01*
X1013224Y838547D01*
X1013323Y838787D01*
X1013464Y839027D01*
Y839041D01*
X1013478Y839055D01*
X1013549Y839139D01*
X1013647Y839252D01*
X1013774Y839393D01*
X1013943Y839548D01*
X1014155Y839717D01*
X1014408Y839873D01*
X1014690Y840013D01*
X1014705D01*
X1014733Y840027D01*
X1014775Y840042D01*
X1014831Y840070D01*
X1014902Y840098D01*
X1015001Y840126D01*
X1015212Y840183D01*
X1015480Y840239D01*
X1015790Y840295D01*
X1016114Y840338D01*
X1016481Y840352D01*
X1016664D01*
X1016763Y840338D01*
D02*
G37*
G36*
X1029210Y839027D02*
X1025996D01*
Y830427D01*
X1024699D01*
Y839027D01*
X1021485D01*
Y840183D01*
X1029210D01*
Y839027D01*
D02*
G37*
G36*
X1007938Y840169D02*
X1008065D01*
X1008361Y840154D01*
X1008671Y840112D01*
X1009009Y840070D01*
X1009319Y839999D01*
X1009474Y839957D01*
X1009601Y839915D01*
X1009615D01*
X1009630Y839901D01*
X1009714Y839858D01*
X1009841Y839802D01*
X1009996Y839703D01*
X1010165Y839576D01*
X1010349Y839407D01*
X1010518Y839210D01*
X1010687Y838984D01*
Y838970D01*
X1010701Y838956D01*
X1010757Y838872D01*
X1010814Y838731D01*
X1010898Y838547D01*
X1010969Y838336D01*
X1011039Y838082D01*
X1011081Y837814D01*
X1011096Y837518D01*
Y837504D01*
Y837476D01*
Y837420D01*
X1011081Y837349D01*
Y837250D01*
X1011067Y837152D01*
X1011011Y836912D01*
X1010927Y836630D01*
X1010814Y836334D01*
X1010645Y836038D01*
X1010532Y835897D01*
X1010419Y835756D01*
X1010405Y835742D01*
X1010391Y835728D01*
X1010349Y835686D01*
X1010292Y835643D01*
X1010222Y835587D01*
X1010137Y835531D01*
X1010024Y835460D01*
X1009911Y835376D01*
X1009771Y835305D01*
X1009615Y835235D01*
X1009446Y835150D01*
X1009263Y835079D01*
X1009052Y835023D01*
X1008840Y834953D01*
X1008600Y834910D01*
X1008347Y834868D01*
X1008375Y834854D01*
X1008431Y834826D01*
X1008516Y834769D01*
X1008629Y834713D01*
X1008882Y834558D01*
X1009009Y834459D01*
X1009122Y834375D01*
X1009150Y834346D01*
X1009221Y834276D01*
X1009333Y834163D01*
X1009474Y834022D01*
X1009630Y833825D01*
X1009813Y833613D01*
X1009996Y833360D01*
X1010193Y833078D01*
X1011871Y830427D01*
X1010264D01*
X1008981Y832457D01*
Y832471D01*
X1008953Y832500D01*
X1008925Y832542D01*
X1008882Y832598D01*
X1008784Y832754D01*
X1008657Y832951D01*
X1008502Y833162D01*
X1008347Y833388D01*
X1008192Y833599D01*
X1008051Y833797D01*
X1008037Y833811D01*
X1007994Y833867D01*
X1007924Y833952D01*
X1007825Y834050D01*
X1007614Y834262D01*
X1007501Y834361D01*
X1007388Y834445D01*
X1007374Y834459D01*
X1007346Y834473D01*
X1007290Y834501D01*
X1007205Y834544D01*
X1007120Y834586D01*
X1007022Y834628D01*
X1006796Y834699D01*
X1006782D01*
X1006754Y834713D01*
X1006697D01*
X1006627Y834727D01*
X1006528Y834741D01*
X1006415D01*
X1006260Y834755D01*
X1004597D01*
Y830427D01*
X1003300D01*
Y840183D01*
X1007825D01*
X1007938Y840169D01*
D02*
G37*
G36*
X1014648Y806542D02*
X1013351D01*
Y816297D01*
X1014648D01*
Y806542D01*
D02*
G37*
G36*
X1007303Y816283D02*
X1007586Y816269D01*
X1007867Y816241D01*
X1008149Y816198D01*
X1008389Y816156D01*
X1008403D01*
X1008431Y816142D01*
X1008474D01*
X1008530Y816114D01*
X1008685Y816071D01*
X1008882Y816001D01*
X1009108Y815902D01*
X1009348Y815776D01*
X1009587Y815635D01*
X1009813Y815451D01*
X1009827Y815437D01*
X1009841Y815423D01*
X1009883Y815381D01*
X1009940Y815339D01*
X1010081Y815198D01*
X1010250Y815000D01*
X1010433Y814761D01*
X1010630Y814479D01*
X1010814Y814154D01*
X1010969Y813788D01*
Y813774D01*
X1010983Y813745D01*
X1011011Y813689D01*
X1011025Y813605D01*
X1011067Y813506D01*
X1011096Y813393D01*
X1011124Y813266D01*
X1011166Y813111D01*
X1011208Y812956D01*
X1011237Y812773D01*
X1011307Y812378D01*
X1011349Y811941D01*
X1011364Y811462D01*
Y811448D01*
Y811420D01*
Y811349D01*
Y811279D01*
X1011349Y811180D01*
Y811067D01*
X1011335Y810799D01*
X1011293Y810489D01*
X1011251Y810165D01*
X1011180Y809827D01*
X1011096Y809488D01*
Y809474D01*
X1011081Y809446D01*
X1011067Y809404D01*
X1011053Y809347D01*
X1010997Y809192D01*
X1010912Y808995D01*
X1010828Y808769D01*
X1010715Y808544D01*
X1010574Y808304D01*
X1010433Y808079D01*
X1010419Y808050D01*
X1010363Y807980D01*
X1010278Y807881D01*
X1010165Y807754D01*
X1010038Y807613D01*
X1009883Y807472D01*
X1009728Y807317D01*
X1009545Y807190D01*
X1009517Y807176D01*
X1009460Y807134D01*
X1009362Y807078D01*
X1009221Y807007D01*
X1009052Y806923D01*
X1008854Y806852D01*
X1008629Y806768D01*
X1008375Y806697D01*
X1008347D01*
X1008304Y806683D01*
X1008262Y806669D01*
X1008121Y806655D01*
X1007924Y806627D01*
X1007698Y806598D01*
X1007430Y806570D01*
X1007134Y806556D01*
X1006810Y806542D01*
X1003300D01*
Y816297D01*
X1007050D01*
X1007303Y816283D01*
D02*
G37*
G36*
X1021429Y816452D02*
X1021556D01*
X1021683Y816438D01*
X1021852Y816410D01*
X1022021Y816382D01*
X1022387Y816311D01*
X1022810Y816198D01*
X1023219Y816029D01*
X1023430Y815930D01*
X1023642Y815818D01*
X1023656Y815804D01*
X1023684Y815790D01*
X1023741Y815747D01*
X1023825Y815705D01*
X1023910Y815635D01*
X1024023Y815550D01*
X1024262Y815352D01*
X1024516Y815099D01*
X1024798Y814789D01*
X1025066Y814422D01*
X1025291Y814013D01*
Y813999D01*
X1025320Y813957D01*
X1025348Y813901D01*
X1025376Y813816D01*
X1025432Y813703D01*
X1025475Y813576D01*
X1025531Y813421D01*
X1025587Y813252D01*
X1025630Y813069D01*
X1025686Y812871D01*
X1025742Y812646D01*
X1025785Y812420D01*
X1025841Y811927D01*
X1025869Y811391D01*
Y811377D01*
Y811321D01*
Y811250D01*
X1025855Y811137D01*
Y811011D01*
X1025841Y810856D01*
X1025813Y810686D01*
X1025799Y810503D01*
X1025728Y810094D01*
X1025616Y809643D01*
X1025461Y809192D01*
X1025376Y808967D01*
X1025263Y808741D01*
Y808727D01*
X1025235Y808685D01*
X1025207Y808628D01*
X1025150Y808544D01*
X1025094Y808445D01*
X1025023Y808346D01*
X1024826Y808079D01*
X1024586Y807797D01*
X1024305Y807501D01*
X1023966Y807219D01*
X1023571Y806965D01*
X1023557D01*
X1023529Y806937D01*
X1023459Y806908D01*
X1023374Y806866D01*
X1023275Y806824D01*
X1023163Y806782D01*
X1023022Y806725D01*
X1022867Y806669D01*
X1022698Y806612D01*
X1022514Y806556D01*
X1022105Y806471D01*
X1021668Y806401D01*
X1021203Y806373D01*
X1021062D01*
X1020978Y806387D01*
X1020851D01*
X1020710Y806415D01*
X1020555Y806429D01*
X1020371Y806457D01*
X1019991Y806542D01*
X1019582Y806655D01*
X1019159Y806824D01*
X1018948Y806923D01*
X1018736Y807035D01*
X1018722Y807049D01*
X1018694Y807064D01*
X1018637Y807106D01*
X1018553Y807162D01*
X1018468Y807219D01*
X1018370Y807303D01*
X1018130Y807515D01*
X1017862Y807768D01*
X1017580Y808079D01*
X1017327Y808431D01*
X1017087Y808840D01*
Y808854D01*
X1017059Y808896D01*
X1017030Y808952D01*
X1017002Y809037D01*
X1016960Y809150D01*
X1016918Y809277D01*
X1016861Y809418D01*
X1016819Y809573D01*
X1016763Y809756D01*
X1016706Y809939D01*
X1016622Y810362D01*
X1016565Y810799D01*
X1016537Y811279D01*
Y811293D01*
Y811307D01*
Y811391D01*
X1016551Y811518D01*
Y811687D01*
X1016579Y811885D01*
X1016608Y812124D01*
X1016650Y812392D01*
X1016706Y812674D01*
X1016763Y812970D01*
X1016847Y813280D01*
X1016960Y813590D01*
X1017087Y813915D01*
X1017228Y814225D01*
X1017411Y814535D01*
X1017608Y814817D01*
X1017834Y815085D01*
X1017848Y815099D01*
X1017890Y815141D01*
X1017975Y815212D01*
X1018074Y815296D01*
X1018201Y815409D01*
X1018356Y815522D01*
X1018539Y815649D01*
X1018750Y815776D01*
X1018976Y815902D01*
X1019230Y816029D01*
X1019512Y816142D01*
X1019808Y816255D01*
X1020132Y816339D01*
X1020470Y816410D01*
X1020823Y816452D01*
X1021203Y816466D01*
X1021330D01*
X1021429Y816452D01*
D02*
G37*
G36*
X1008445Y792567D02*
X1008558D01*
X1008826Y792538D01*
X1009122Y792496D01*
X1009432Y792426D01*
X1009771Y792341D01*
X1010095Y792228D01*
X1010109D01*
X1010137Y792214D01*
X1010179Y792200D01*
X1010236Y792172D01*
X1010391Y792087D01*
X1010588Y791989D01*
X1010800Y791848D01*
X1011025Y791678D01*
X1011237Y791495D01*
X1011434Y791270D01*
X1011462Y791241D01*
X1011519Y791157D01*
X1011603Y791030D01*
X1011716Y790847D01*
X1011829Y790621D01*
X1011956Y790339D01*
X1012082Y790029D01*
X1012181Y789677D01*
X1011011Y789367D01*
Y789381D01*
X1010997Y789395D01*
X1010983Y789437D01*
X1010969Y789493D01*
X1010927Y789620D01*
X1010870Y789790D01*
X1010786Y789987D01*
X1010687Y790170D01*
X1010588Y790367D01*
X1010461Y790537D01*
X1010447Y790551D01*
X1010405Y790607D01*
X1010320Y790678D01*
X1010222Y790776D01*
X1010095Y790889D01*
X1009926Y791002D01*
X1009742Y791115D01*
X1009531Y791213D01*
X1009503Y791227D01*
X1009432Y791255D01*
X1009305Y791298D01*
X1009136Y791354D01*
X1008939Y791396D01*
X1008713Y791439D01*
X1008459Y791467D01*
X1008192Y791481D01*
X1008037D01*
X1007966Y791467D01*
X1007881D01*
X1007670Y791453D01*
X1007430Y791411D01*
X1007163Y791368D01*
X1006909Y791298D01*
X1006655Y791199D01*
X1006627Y791185D01*
X1006542Y791157D01*
X1006430Y791086D01*
X1006289Y791016D01*
X1006119Y790903D01*
X1005936Y790790D01*
X1005767Y790649D01*
X1005612Y790494D01*
X1005598Y790480D01*
X1005541Y790424D01*
X1005471Y790325D01*
X1005386Y790212D01*
X1005288Y790071D01*
X1005189Y789902D01*
X1005090Y789719D01*
X1004992Y789522D01*
Y789508D01*
X1004977Y789479D01*
X1004963Y789437D01*
X1004935Y789367D01*
X1004907Y789282D01*
X1004879Y789183D01*
X1004837Y789071D01*
X1004808Y788944D01*
X1004738Y788648D01*
X1004681Y788309D01*
X1004639Y787957D01*
X1004625Y787562D01*
Y787548D01*
Y787506D01*
Y787435D01*
X1004639Y787351D01*
Y787238D01*
X1004653Y787097D01*
X1004667Y786956D01*
X1004681Y786801D01*
X1004738Y786449D01*
X1004808Y786082D01*
X1004921Y785715D01*
X1005062Y785363D01*
Y785349D01*
X1005090Y785321D01*
X1005104Y785278D01*
X1005147Y785222D01*
X1005245Y785067D01*
X1005400Y784870D01*
X1005584Y784658D01*
X1005809Y784447D01*
X1006077Y784249D01*
X1006373Y784066D01*
X1006387D01*
X1006415Y784052D01*
X1006458Y784024D01*
X1006528Y783996D01*
X1006599Y783967D01*
X1006697Y783939D01*
X1006923Y783855D01*
X1007205Y783784D01*
X1007515Y783714D01*
X1007853Y783657D01*
X1008206Y783643D01*
X1008347D01*
X1008431Y783657D01*
X1008516D01*
X1008727Y783686D01*
X1008981Y783714D01*
X1009249Y783770D01*
X1009545Y783855D01*
X1009841Y783953D01*
X1009855D01*
X1009883Y783967D01*
X1009911Y783981D01*
X1009968Y784010D01*
X1010123Y784080D01*
X1010292Y784165D01*
X1010490Y784263D01*
X1010701Y784376D01*
X1010898Y784503D01*
X1011067Y784644D01*
Y786477D01*
X1008192D01*
Y787633D01*
X1012336D01*
Y784010D01*
X1012322Y783996D01*
X1012294Y783981D01*
X1012237Y783939D01*
X1012167Y783883D01*
X1012082Y783826D01*
X1011984Y783756D01*
X1011857Y783671D01*
X1011730Y783587D01*
X1011434Y783403D01*
X1011096Y783206D01*
X1010743Y783023D01*
X1010363Y782868D01*
X1010349D01*
X1010320Y782854D01*
X1010264Y782840D01*
X1010193Y782811D01*
X1010095Y782783D01*
X1009982Y782741D01*
X1009855Y782713D01*
X1009728Y782685D01*
X1009418Y782614D01*
X1009066Y782544D01*
X1008685Y782501D01*
X1008290Y782487D01*
X1008149D01*
X1008051Y782501D01*
X1007924D01*
X1007769Y782515D01*
X1007600Y782544D01*
X1007416Y782558D01*
X1007008Y782642D01*
X1006571Y782741D01*
X1006119Y782896D01*
X1005894Y782981D01*
X1005668Y783093D01*
X1005654Y783108D01*
X1005612Y783122D01*
X1005555Y783164D01*
X1005471Y783206D01*
X1005372Y783277D01*
X1005274Y783347D01*
X1005006Y783544D01*
X1004724Y783798D01*
X1004428Y784108D01*
X1004146Y784461D01*
X1003892Y784870D01*
Y784884D01*
X1003864Y784926D01*
X1003836Y784982D01*
X1003793Y785081D01*
X1003751Y785180D01*
X1003709Y785321D01*
X1003652Y785462D01*
X1003596Y785631D01*
X1003540Y785814D01*
X1003483Y786026D01*
X1003441Y786237D01*
X1003399Y786463D01*
X1003328Y786956D01*
X1003300Y787477D01*
Y787492D01*
Y787548D01*
Y787618D01*
X1003314Y787717D01*
Y787844D01*
X1003328Y787999D01*
X1003356Y788154D01*
X1003371Y788337D01*
X1003413Y788535D01*
X1003441Y788746D01*
X1003554Y789197D01*
X1003695Y789663D01*
X1003892Y790128D01*
X1003906Y790142D01*
X1003920Y790184D01*
X1003949Y790241D01*
X1004005Y790325D01*
X1004061Y790438D01*
X1004132Y790551D01*
X1004329Y790818D01*
X1004569Y791129D01*
X1004865Y791425D01*
X1005203Y791721D01*
X1005400Y791848D01*
X1005598Y791974D01*
X1005612Y791989D01*
X1005654Y792003D01*
X1005711Y792031D01*
X1005795Y792073D01*
X1005908Y792115D01*
X1006035Y792172D01*
X1006176Y792228D01*
X1006345Y792285D01*
X1006528Y792341D01*
X1006726Y792383D01*
X1006937Y792440D01*
X1007163Y792482D01*
X1007656Y792552D01*
X1007910Y792581D01*
X1008361D01*
X1008445Y792567D01*
D02*
G37*
G36*
X1021908Y782656D02*
X1020569D01*
X1015466Y790311D01*
Y782656D01*
X1014225D01*
Y792411D01*
X1015550D01*
X1020667Y784743D01*
Y792411D01*
X1021908D01*
Y782656D01*
D02*
G37*
G36*
X1028083Y792397D02*
X1028364Y792383D01*
X1028646Y792355D01*
X1028928Y792313D01*
X1029168Y792271D01*
X1029182D01*
X1029210Y792256D01*
X1029253D01*
X1029309Y792228D01*
X1029464Y792186D01*
X1029661Y792115D01*
X1029887Y792017D01*
X1030127Y791890D01*
X1030366Y791749D01*
X1030592Y791566D01*
X1030606Y791552D01*
X1030620Y791537D01*
X1030662Y791495D01*
X1030719Y791453D01*
X1030860Y791312D01*
X1031029Y791115D01*
X1031212Y790875D01*
X1031409Y790593D01*
X1031593Y790269D01*
X1031748Y789902D01*
Y789888D01*
X1031762Y789860D01*
X1031790Y789804D01*
X1031804Y789719D01*
X1031846Y789620D01*
X1031875Y789508D01*
X1031903Y789381D01*
X1031945Y789226D01*
X1031987Y789071D01*
X1032016Y788887D01*
X1032086Y788493D01*
X1032128Y788055D01*
X1032142Y787576D01*
Y787562D01*
Y787534D01*
Y787463D01*
Y787393D01*
X1032128Y787294D01*
Y787181D01*
X1032114Y786914D01*
X1032072Y786603D01*
X1032030Y786279D01*
X1031959Y785941D01*
X1031875Y785603D01*
Y785589D01*
X1031861Y785560D01*
X1031846Y785518D01*
X1031832Y785462D01*
X1031776Y785307D01*
X1031691Y785109D01*
X1031607Y784884D01*
X1031494Y784658D01*
X1031353Y784418D01*
X1031212Y784193D01*
X1031198Y784165D01*
X1031142Y784094D01*
X1031057Y783996D01*
X1030944Y783869D01*
X1030817Y783728D01*
X1030662Y783587D01*
X1030507Y783432D01*
X1030324Y783305D01*
X1030296Y783291D01*
X1030239Y783248D01*
X1030141Y783192D01*
X1030000Y783122D01*
X1029831Y783037D01*
X1029633Y782967D01*
X1029408Y782882D01*
X1029154Y782811D01*
X1029126D01*
X1029083Y782797D01*
X1029041Y782783D01*
X1028900Y782769D01*
X1028703Y782741D01*
X1028477Y782713D01*
X1028209Y782685D01*
X1027913Y782671D01*
X1027589Y782656D01*
X1024079D01*
Y792411D01*
X1027829D01*
X1028083Y792397D01*
D02*
G37*
G36*
X1008135Y768681D02*
X1008262Y768667D01*
X1008417Y768653D01*
X1008572Y768639D01*
X1008755Y768596D01*
X1009136Y768512D01*
X1009559Y768385D01*
X1009771Y768300D01*
X1009968Y768202D01*
X1010165Y768075D01*
X1010363Y767948D01*
X1010377Y767934D01*
X1010405Y767920D01*
X1010461Y767878D01*
X1010532Y767807D01*
X1010602Y767737D01*
X1010701Y767638D01*
X1010800Y767525D01*
X1010912Y767412D01*
X1011025Y767271D01*
X1011138Y767102D01*
X1011265Y766933D01*
X1011378Y766750D01*
X1011476Y766538D01*
X1011589Y766327D01*
X1011674Y766101D01*
X1011758Y765847D01*
X1010490Y765552D01*
Y765566D01*
X1010475Y765594D01*
X1010447Y765650D01*
X1010419Y765721D01*
X1010391Y765805D01*
X1010349Y765918D01*
X1010236Y766144D01*
X1010095Y766397D01*
X1009926Y766651D01*
X1009714Y766891D01*
X1009489Y767102D01*
X1009460Y767130D01*
X1009376Y767187D01*
X1009235Y767257D01*
X1009052Y767356D01*
X1008812Y767440D01*
X1008544Y767525D01*
X1008220Y767581D01*
X1007867Y767596D01*
X1007755D01*
X1007684Y767581D01*
X1007586D01*
X1007473Y767567D01*
X1007205Y767525D01*
X1006909Y767469D01*
X1006599Y767370D01*
X1006274Y767229D01*
X1005978Y767046D01*
X1005964D01*
X1005950Y767018D01*
X1005852Y766947D01*
X1005725Y766834D01*
X1005570Y766665D01*
X1005386Y766454D01*
X1005217Y766214D01*
X1005062Y765918D01*
X1004921Y765594D01*
Y765580D01*
X1004907Y765552D01*
X1004893Y765509D01*
X1004879Y765439D01*
X1004851Y765354D01*
X1004822Y765255D01*
X1004780Y765016D01*
X1004724Y764734D01*
X1004667Y764424D01*
X1004639Y764085D01*
X1004625Y763719D01*
Y763705D01*
Y763662D01*
Y763592D01*
Y763507D01*
X1004639Y763409D01*
Y763282D01*
X1004653Y763141D01*
X1004667Y762986D01*
X1004710Y762647D01*
X1004780Y762281D01*
X1004865Y761915D01*
X1004977Y761548D01*
Y761534D01*
X1004992Y761506D01*
X1005020Y761463D01*
X1005048Y761393D01*
X1005133Y761224D01*
X1005259Y761026D01*
X1005415Y760801D01*
X1005612Y760561D01*
X1005837Y760350D01*
X1006105Y760152D01*
X1006119D01*
X1006148Y760138D01*
X1006190Y760110D01*
X1006246Y760082D01*
X1006317Y760054D01*
X1006401Y760011D01*
X1006599Y759927D01*
X1006852Y759842D01*
X1007134Y759772D01*
X1007445Y759715D01*
X1007769Y759701D01*
X1007867D01*
X1007952Y759715D01*
X1008051D01*
X1008149Y759729D01*
X1008403Y759786D01*
X1008699Y759856D01*
X1008995Y759969D01*
X1009305Y760124D01*
X1009460Y760209D01*
X1009601Y760322D01*
X1009615Y760336D01*
X1009630Y760350D01*
X1009672Y760392D01*
X1009728Y760434D01*
X1009785Y760505D01*
X1009855Y760589D01*
X1009940Y760674D01*
X1010010Y760787D01*
X1010095Y760914D01*
X1010193Y761055D01*
X1010278Y761196D01*
X1010363Y761365D01*
X1010433Y761548D01*
X1010504Y761745D01*
X1010574Y761957D01*
X1010630Y762182D01*
X1011927Y761858D01*
Y761844D01*
X1011913Y761788D01*
X1011885Y761703D01*
X1011843Y761590D01*
X1011801Y761463D01*
X1011744Y761308D01*
X1011674Y761139D01*
X1011589Y760956D01*
X1011392Y760561D01*
X1011138Y760166D01*
X1010983Y759969D01*
X1010828Y759772D01*
X1010659Y759603D01*
X1010461Y759433D01*
X1010447Y759419D01*
X1010419Y759391D01*
X1010349Y759363D01*
X1010278Y759306D01*
X1010165Y759236D01*
X1010052Y759165D01*
X1009897Y759095D01*
X1009742Y759025D01*
X1009559Y758940D01*
X1009362Y758869D01*
X1009150Y758799D01*
X1008925Y758728D01*
X1008685Y758672D01*
X1008431Y758644D01*
X1008164Y758616D01*
X1007881Y758602D01*
X1007727D01*
X1007614Y758616D01*
X1007487D01*
X1007332Y758630D01*
X1007163Y758658D01*
X1006965Y758686D01*
X1006556Y758757D01*
X1006133Y758869D01*
X1005711Y759025D01*
X1005513Y759123D01*
X1005316Y759236D01*
X1005302Y759250D01*
X1005274Y759264D01*
X1005217Y759306D01*
X1005161Y759363D01*
X1005076Y759419D01*
X1004977Y759504D01*
X1004865Y759603D01*
X1004752Y759715D01*
X1004639Y759842D01*
X1004512Y759969D01*
X1004259Y760293D01*
X1004019Y760674D01*
X1003808Y761097D01*
Y761111D01*
X1003779Y761153D01*
X1003765Y761224D01*
X1003723Y761308D01*
X1003695Y761421D01*
X1003652Y761562D01*
X1003596Y761717D01*
X1003554Y761886D01*
X1003512Y762069D01*
X1003455Y762281D01*
X1003385Y762718D01*
X1003328Y763211D01*
X1003300Y763719D01*
Y763733D01*
Y763789D01*
Y763874D01*
X1003314Y763973D01*
Y764114D01*
X1003328Y764255D01*
X1003342Y764438D01*
X1003371Y764621D01*
X1003441Y765030D01*
X1003540Y765481D01*
X1003681Y765932D01*
X1003878Y766369D01*
X1003892Y766383D01*
X1003906Y766425D01*
X1003934Y766482D01*
X1003991Y766552D01*
X1004047Y766651D01*
X1004118Y766764D01*
X1004301Y767018D01*
X1004540Y767299D01*
X1004822Y767581D01*
X1005147Y767863D01*
X1005527Y768103D01*
X1005541Y768117D01*
X1005584Y768131D01*
X1005640Y768159D01*
X1005711Y768202D01*
X1005823Y768244D01*
X1005936Y768286D01*
X1006077Y768343D01*
X1006232Y768399D01*
X1006401Y768456D01*
X1006585Y768512D01*
X1006979Y768596D01*
X1007430Y768667D01*
X1007896Y768695D01*
X1008037D01*
X1008135Y768681D01*
D02*
G37*
G36*
X1024840Y764565D02*
X1029112Y758771D01*
X1027406D01*
X1023938Y763691D01*
X1022345Y762154D01*
Y758771D01*
X1021048D01*
Y768526D01*
X1022345D01*
Y763677D01*
X1027166Y768526D01*
X1028928D01*
X1024840Y764565D01*
D02*
G37*
G36*
X1014761Y759927D02*
X1019568D01*
Y758771D01*
X1013464D01*
Y768526D01*
X1014761D01*
Y759927D01*
D02*
G37*
%LPC*%
G36*
X537753Y890778D02*
X537739D01*
X537725D01*
X537640Y890764D01*
X537514Y890750D01*
X537345Y890721D01*
X537175Y890651D01*
X536978Y890566D01*
X536795Y890439D01*
X536611Y890270D01*
X536597Y890242D01*
X536541Y890172D01*
X536470Y890059D01*
X536386Y889875D01*
X536301Y889664D01*
X536231Y889382D01*
X536174Y889058D01*
X536160Y888677D01*
Y885604D01*
X539389D01*
Y888508D01*
X539375Y888677D01*
X539360Y888875D01*
X539346Y889100D01*
X539318Y889326D01*
X539276Y889551D01*
X539219Y889749D01*
X539205Y889777D01*
X539177Y889833D01*
X539135Y889918D01*
X539078Y890031D01*
X538994Y890157D01*
X538895Y890284D01*
X538768Y890411D01*
X538627Y890510D01*
X538613Y890524D01*
X538557Y890552D01*
X538472Y890594D01*
X538359Y890651D01*
X538233Y890693D01*
X538092Y890735D01*
X537923Y890764D01*
X537753Y890778D01*
D02*
G37*
G36*
X537951Y868448D02*
X537937D01*
X537923D01*
X537852D01*
X537725Y868434D01*
X537584Y868406D01*
X537429Y868378D01*
X537246Y868321D01*
X537077Y868237D01*
X536908Y868138D01*
X536893Y868124D01*
X536837Y868082D01*
X536767Y868011D01*
X536668Y867926D01*
X536569Y867800D01*
X536485Y867659D01*
X536400Y867504D01*
X536329Y867320D01*
Y867306D01*
X536315Y867250D01*
X536301Y867165D01*
X536273Y867053D01*
X536259Y866883D01*
X536245Y866672D01*
X536231Y866418D01*
Y863627D01*
X539713D01*
Y866249D01*
X539699Y866348D01*
Y866446D01*
X539685Y866559D01*
X539656Y866827D01*
X539600Y867123D01*
X539515Y867419D01*
X539403Y867687D01*
X539332Y867814D01*
X539248Y867912D01*
X539219Y867941D01*
X539163Y867997D01*
X539050Y868082D01*
X538909Y868180D01*
X538726Y868279D01*
X538500Y868363D01*
X538247Y868420D01*
X537951Y868448D01*
D02*
G37*
G36*
X997831Y896077D02*
X995575D01*
Y888634D01*
X997887D01*
X997986Y888648D01*
X998197Y888662D01*
X998437Y888676D01*
X998690Y888704D01*
X998944Y888746D01*
X999156Y888803D01*
X999184Y888817D01*
X999254Y888831D01*
X999353Y888873D01*
X999480Y888930D01*
X999621Y889014D01*
X999762Y889099D01*
X999903Y889197D01*
X1000044Y889310D01*
X1000058Y889339D01*
X1000114Y889395D01*
X1000199Y889493D01*
X1000298Y889634D01*
X1000410Y889818D01*
X1000537Y890029D01*
X1000650Y890269D01*
X1000749Y890537D01*
Y890551D01*
X1000763Y890579D01*
X1000777Y890621D01*
X1000791Y890678D01*
X1000805Y890748D01*
X1000833Y890847D01*
X1000862Y890946D01*
X1000890Y891058D01*
X1000932Y891340D01*
X1000974Y891665D01*
X1001002Y892031D01*
X1001016Y892426D01*
Y892440D01*
Y892496D01*
Y892567D01*
X1001002Y892679D01*
Y892806D01*
X1000988Y892947D01*
X1000974Y893117D01*
X1000960Y893286D01*
X1000890Y893666D01*
X1000805Y894061D01*
X1000678Y894427D01*
X1000594Y894611D01*
X1000509Y894766D01*
Y894780D01*
X1000481Y894808D01*
X1000453Y894850D01*
X1000424Y894907D01*
X1000312Y895048D01*
X1000171Y895217D01*
X999987Y895400D01*
X999776Y895583D01*
X999536Y895739D01*
X999283Y895865D01*
X999254Y895880D01*
X999184Y895894D01*
X999057Y895936D01*
X998874Y895978D01*
X998648Y896006D01*
X998366Y896049D01*
X998197Y896063D01*
X998014D01*
X997831Y896077D01*
D02*
G37*
G36*
X979730Y896147D02*
X976657D01*
Y892919D01*
X979561D01*
X979730Y892933D01*
X979927Y892947D01*
X980153Y892961D01*
X980378Y892990D01*
X980604Y893032D01*
X980801Y893088D01*
X980830Y893102D01*
X980886Y893130D01*
X980971Y893173D01*
X981083Y893229D01*
X981210Y893314D01*
X981337Y893412D01*
X981464Y893539D01*
X981563Y893680D01*
X981577Y893694D01*
X981605Y893751D01*
X981647Y893835D01*
X981704Y893948D01*
X981746Y894075D01*
X981788Y894216D01*
X981816Y894385D01*
X981831Y894554D01*
Y894568D01*
Y894583D01*
X981816Y894667D01*
X981802Y894794D01*
X981774Y894963D01*
X981704Y895132D01*
X981619Y895330D01*
X981492Y895513D01*
X981323Y895696D01*
X981295Y895710D01*
X981224Y895767D01*
X981112Y895837D01*
X980928Y895922D01*
X980717Y896006D01*
X980435Y896077D01*
X980111Y896133D01*
X979730Y896147D01*
D02*
G37*
G36*
X976429Y692977D02*
X974117D01*
Y690044D01*
X976513D01*
X976697Y690059D01*
X976894Y690073D01*
X977091Y690087D01*
X977289Y690115D01*
X977444Y690143D01*
X977472Y690157D01*
X977528Y690171D01*
X977613Y690214D01*
X977726Y690270D01*
X977839Y690326D01*
X977965Y690411D01*
X978092Y690524D01*
X978191Y690637D01*
X978205Y690651D01*
X978233Y690693D01*
X978276Y690778D01*
X978318Y690876D01*
X978360Y690989D01*
X978402Y691130D01*
X978431Y691299D01*
X978445Y691482D01*
Y691511D01*
Y691567D01*
X978431Y691652D01*
X978417Y691764D01*
X978388Y691905D01*
X978346Y692046D01*
X978290Y692187D01*
X978205Y692328D01*
X978191Y692342D01*
X978163Y692385D01*
X978106Y692455D01*
X978036Y692525D01*
X977937Y692610D01*
X977824Y692695D01*
X977683Y692779D01*
X977528Y692836D01*
X977514D01*
X977444Y692864D01*
X977345Y692878D01*
X977190Y692906D01*
X976979Y692934D01*
X976739Y692948D01*
X976429Y692977D01*
D02*
G37*
G36*
X976683Y688888D02*
X974117D01*
Y685533D01*
X976894D01*
X977190Y685547D01*
X977317Y685562D01*
X977430Y685576D01*
X977444D01*
X977500Y685590D01*
X977585Y685604D01*
X977683Y685632D01*
X977923Y685717D01*
X978163Y685829D01*
X978177Y685844D01*
X978219Y685872D01*
X978276Y685914D01*
X978346Y685970D01*
X978417Y686055D01*
X978515Y686140D01*
X978586Y686252D01*
X978670Y686379D01*
X978684Y686393D01*
X978698Y686436D01*
X978727Y686520D01*
X978769Y686619D01*
X978811Y686732D01*
X978839Y686873D01*
X978854Y687042D01*
X978868Y687211D01*
Y687239D01*
Y687296D01*
X978854Y687408D01*
X978825Y687535D01*
X978797Y687676D01*
X978741Y687831D01*
X978670Y687986D01*
X978572Y688141D01*
X978558Y688156D01*
X978515Y688212D01*
X978459Y688282D01*
X978374Y688367D01*
X978261Y688466D01*
X978120Y688564D01*
X977965Y688649D01*
X977782Y688719D01*
X977754Y688733D01*
X977698Y688747D01*
X977571Y688776D01*
X977416Y688804D01*
X977218Y688832D01*
X976979Y688860D01*
X976683Y688888D01*
D02*
G37*
G36*
X1007670Y839097D02*
X1004597D01*
Y835869D01*
X1007501D01*
X1007670Y835883D01*
X1007867Y835897D01*
X1008093Y835911D01*
X1008318Y835939D01*
X1008544Y835982D01*
X1008741Y836038D01*
X1008770Y836052D01*
X1008826Y836080D01*
X1008911Y836123D01*
X1009023Y836179D01*
X1009150Y836264D01*
X1009277Y836362D01*
X1009404Y836489D01*
X1009503Y836630D01*
X1009517Y836644D01*
X1009545Y836701D01*
X1009587Y836785D01*
X1009644Y836898D01*
X1009686Y837025D01*
X1009728Y837166D01*
X1009756Y837335D01*
X1009771Y837504D01*
Y837518D01*
Y837532D01*
X1009756Y837617D01*
X1009742Y837744D01*
X1009714Y837913D01*
X1009644Y838082D01*
X1009559Y838279D01*
X1009432Y838463D01*
X1009263Y838646D01*
X1009235Y838660D01*
X1009164Y838717D01*
X1009052Y838787D01*
X1008868Y838872D01*
X1008657Y838956D01*
X1008375Y839027D01*
X1008051Y839083D01*
X1007670Y839097D01*
D02*
G37*
G36*
X1006852Y815141D02*
X1004597D01*
Y807698D01*
X1006909D01*
X1007008Y807712D01*
X1007219Y807726D01*
X1007459Y807740D01*
X1007712Y807768D01*
X1007966Y807811D01*
X1008178Y807867D01*
X1008206Y807881D01*
X1008276Y807895D01*
X1008375Y807937D01*
X1008502Y807994D01*
X1008643Y808079D01*
X1008784Y808163D01*
X1008925Y808262D01*
X1009066Y808374D01*
X1009080Y808403D01*
X1009136Y808459D01*
X1009221Y808558D01*
X1009319Y808699D01*
X1009432Y808882D01*
X1009559Y809093D01*
X1009672Y809333D01*
X1009771Y809601D01*
Y809615D01*
X1009785Y809643D01*
X1009799Y809686D01*
X1009813Y809742D01*
X1009827Y809812D01*
X1009855Y809911D01*
X1009883Y810010D01*
X1009911Y810123D01*
X1009954Y810405D01*
X1009996Y810729D01*
X1010024Y811095D01*
X1010038Y811490D01*
Y811504D01*
Y811561D01*
Y811631D01*
X1010024Y811744D01*
Y811871D01*
X1010010Y812012D01*
X1009996Y812181D01*
X1009982Y812350D01*
X1009911Y812730D01*
X1009827Y813125D01*
X1009700Y813492D01*
X1009615Y813675D01*
X1009531Y813830D01*
Y813844D01*
X1009503Y813872D01*
X1009474Y813915D01*
X1009446Y813971D01*
X1009333Y814112D01*
X1009193Y814281D01*
X1009009Y814464D01*
X1008798Y814648D01*
X1008558Y814803D01*
X1008304Y814930D01*
X1008276Y814944D01*
X1008206Y814958D01*
X1008079Y815000D01*
X1007896Y815042D01*
X1007670Y815071D01*
X1007388Y815113D01*
X1007219Y815127D01*
X1007036D01*
X1006852Y815141D01*
D02*
G37*
G36*
X1021203Y815352D02*
X1021076D01*
X1020978Y815339D01*
X1020851Y815324D01*
X1020724Y815296D01*
X1020569Y815268D01*
X1020400Y815240D01*
X1020033Y815127D01*
X1019836Y815042D01*
X1019638Y814958D01*
X1019427Y814845D01*
X1019230Y814718D01*
X1019032Y814577D01*
X1018849Y814408D01*
X1018835Y814394D01*
X1018807Y814366D01*
X1018764Y814309D01*
X1018694Y814225D01*
X1018623Y814126D01*
X1018539Y813999D01*
X1018454Y813844D01*
X1018356Y813661D01*
X1018271Y813464D01*
X1018172Y813224D01*
X1018088Y812970D01*
X1018017Y812688D01*
X1017947Y812378D01*
X1017905Y812026D01*
X1017876Y811659D01*
X1017862Y811264D01*
Y811250D01*
Y811194D01*
Y811095D01*
X1017876Y810968D01*
X1017890Y810827D01*
X1017919Y810658D01*
X1017947Y810461D01*
X1017975Y810264D01*
X1018088Y809812D01*
X1018172Y809587D01*
X1018257Y809347D01*
X1018370Y809122D01*
X1018497Y808896D01*
X1018637Y808685D01*
X1018807Y808487D01*
X1018821Y808473D01*
X1018849Y808445D01*
X1018905Y808389D01*
X1018976Y808332D01*
X1019074Y808248D01*
X1019187Y808163D01*
X1019314Y808079D01*
X1019455Y807980D01*
X1019624Y807881D01*
X1019808Y807797D01*
X1020005Y807712D01*
X1020216Y807627D01*
X1020442Y807571D01*
X1020667Y807515D01*
X1020921Y807486D01*
X1021189Y807472D01*
X1021260D01*
X1021330Y807486D01*
X1021429D01*
X1021556Y807501D01*
X1021697Y807529D01*
X1021866Y807557D01*
X1022035Y807599D01*
X1022232Y807656D01*
X1022415Y807726D01*
X1022627Y807797D01*
X1022824Y807895D01*
X1023022Y808022D01*
X1023219Y808149D01*
X1023416Y808304D01*
X1023600Y808487D01*
X1023614Y808501D01*
X1023642Y808530D01*
X1023684Y808600D01*
X1023755Y808685D01*
X1023825Y808783D01*
X1023896Y808910D01*
X1023980Y809065D01*
X1024079Y809234D01*
X1024164Y809432D01*
X1024248Y809657D01*
X1024319Y809897D01*
X1024403Y810151D01*
X1024460Y810433D01*
X1024502Y810743D01*
X1024530Y811067D01*
X1024544Y811405D01*
Y811420D01*
Y811462D01*
Y811518D01*
Y811603D01*
X1024530Y811701D01*
Y811828D01*
X1024516Y811955D01*
X1024488Y812110D01*
X1024445Y812434D01*
X1024375Y812773D01*
X1024276Y813139D01*
X1024135Y813478D01*
Y813492D01*
X1024121Y813520D01*
X1024093Y813562D01*
X1024065Y813619D01*
X1023966Y813788D01*
X1023839Y813985D01*
X1023670Y814211D01*
X1023459Y814436D01*
X1023219Y814662D01*
X1022951Y814859D01*
X1022937D01*
X1022923Y814887D01*
X1022881Y814901D01*
X1022810Y814944D01*
X1022740Y814972D01*
X1022655Y815014D01*
X1022444Y815113D01*
X1022190Y815198D01*
X1021894Y815282D01*
X1021556Y815339D01*
X1021203Y815352D01*
D02*
G37*
G36*
X1027631Y791255D02*
X1025376D01*
Y783812D01*
X1027688D01*
X1027786Y783826D01*
X1027998Y783840D01*
X1028238Y783855D01*
X1028491Y783883D01*
X1028745Y783925D01*
X1028957Y783981D01*
X1028985Y783996D01*
X1029055Y784010D01*
X1029154Y784052D01*
X1029281Y784108D01*
X1029422Y784193D01*
X1029563Y784277D01*
X1029704Y784376D01*
X1029845Y784489D01*
X1029859Y784517D01*
X1029915Y784574D01*
X1030000Y784672D01*
X1030098Y784813D01*
X1030211Y784996D01*
X1030338Y785208D01*
X1030451Y785448D01*
X1030549Y785715D01*
Y785730D01*
X1030564Y785758D01*
X1030578Y785800D01*
X1030592Y785856D01*
X1030606Y785927D01*
X1030634Y786026D01*
X1030662Y786124D01*
X1030691Y786237D01*
X1030733Y786519D01*
X1030775Y786843D01*
X1030803Y787210D01*
X1030817Y787604D01*
Y787618D01*
Y787675D01*
Y787745D01*
X1030803Y787858D01*
Y787985D01*
X1030789Y788126D01*
X1030775Y788295D01*
X1030761Y788464D01*
X1030691Y788845D01*
X1030606Y789240D01*
X1030479Y789606D01*
X1030394Y789790D01*
X1030310Y789945D01*
Y789959D01*
X1030282Y789987D01*
X1030254Y790029D01*
X1030225Y790086D01*
X1030113Y790227D01*
X1029971Y790396D01*
X1029788Y790579D01*
X1029577Y790762D01*
X1029337Y790917D01*
X1029083Y791044D01*
X1029055Y791058D01*
X1028985Y791072D01*
X1028858Y791115D01*
X1028675Y791157D01*
X1028449Y791185D01*
X1028167Y791227D01*
X1027998Y791241D01*
X1027815D01*
X1027631Y791255D01*
D02*
G37*
%LPD*%
D10*
X885730Y771870D02*
G03*
X885730Y771870I-1500J0D01*
G01*
X678240Y821030D02*
G03*
X678240Y821030I-1000J0D01*
G01*
X633000Y789020D02*
G03*
X633000Y789020I-1000J0D01*
G01*
X862100Y740830D02*
X865100D01*
X862100Y729830D02*
X865100D01*
X567460Y861910D02*
X570460D01*
X567460Y872910D02*
X570460D01*
X760500Y750150D02*
X763500D01*
X760500Y761150D02*
X763500D01*
X752880Y766660D02*
X755880D01*
X752880Y777660D02*
X755880D01*
X793520Y886880D02*
X796520D01*
X793520Y875880D02*
X796520D01*
X793520Y870370D02*
X796520D01*
X793520Y859370D02*
X796520D01*
X874800Y853020D02*
X877800D01*
X874800Y864020D02*
X877800D01*
X692770Y781700D02*
Y789700D01*
X701770D01*
X692770Y759700D02*
Y767700D01*
Y759700D02*
X701770D01*
X901470Y724750D02*
X904470D01*
X901470Y735750D02*
X904470D01*
X637032Y811002D02*
Y814002D01*
X648032Y811002D02*
Y814002D01*
X526970Y734520D02*
X540470D01*
X526970D02*
Y811520D01*
X540470D01*
X618970Y742520D02*
Y750020D01*
Y796020D02*
Y803520D01*
X572970Y811520D02*
X594970D01*
X572970Y734520D02*
X594970D01*
D11*
X687520Y766200D02*
G03*
X687520Y766200I-1250J0D01*
G01*
D12*
X933450Y795985D02*
G03*
X932180Y790449I11430J-5536D01*
G01*
X957580D02*
G03*
X956310Y795985I-12700J0D01*
G01*
Y771196D02*
G03*
X957580Y776732I-11430J5536D01*
G01*
X932180D02*
G03*
X933450Y771196I12700J0D01*
G01*
X956310Y795985D02*
G03*
X933450Y795985I-11430J-5536D01*
G01*
Y771196D02*
G03*
X956310Y771196I11430J5536D01*
G01*
X969010Y838201D02*
G03*
X966470Y840741I-2540J0D01*
G01*
Y726440D02*
G03*
X969010Y728980I0J2540D01*
G01*
X923290Y840741D02*
G03*
X920750Y838201I0J-2540D01*
G01*
Y728980D02*
G03*
X923290Y726440I2540J0D01*
G01*
X856234Y863600D02*
Y883920D01*
X820166Y863600D02*
Y883920D01*
Y863600D02*
X856234D01*
X820166Y883920D02*
X856234D01*
X668934Y749300D02*
Y769620D01*
X632866Y749300D02*
Y769620D01*
Y749300D02*
X668934D01*
X632866Y769620D02*
X668934D01*
X964946Y863600D02*
X1001014D01*
X964946Y883920D02*
X1001014D01*
Y863600D02*
Y883920D01*
X964946Y863600D02*
Y883920D01*
X1006094Y863600D02*
Y883920D01*
X1001014D02*
X1006094D01*
X1001014Y863600D02*
X1005840D01*
X961644D02*
Y883920D01*
X925576Y863600D02*
Y883920D01*
Y863600D02*
X961644D01*
X925576Y883920D02*
X961644D01*
X865530Y897890D02*
X878230D01*
X884580Y891540D01*
Y878840D02*
Y891540D01*
X878230Y872490D02*
X884580Y878840D01*
Y891540D02*
X890930Y897890D01*
X903630D01*
X909980Y891540D01*
Y878840D02*
Y891540D01*
X903630Y872490D02*
X909980Y878840D01*
X890930Y872490D02*
X903630D01*
X884580Y878840D02*
X890930Y872490D01*
X859180Y878840D02*
Y891540D01*
X865530Y897890D01*
X859180Y878840D02*
X865530Y872490D01*
X878230D01*
X587756Y855980D02*
X623824D01*
X587756Y835660D02*
X623824D01*
X587756D02*
Y855980D01*
X623824Y835660D02*
Y855980D01*
X750570Y813816D02*
Y849884D01*
X770890Y813816D02*
Y849884D01*
X750570Y813816D02*
X770890D01*
X750570Y849884D02*
X770890D01*
X998220Y830580D02*
Y843280D01*
X991870Y824230D02*
X998220Y830580D01*
X972820D02*
X979170Y824230D01*
X991870Y849630D02*
X998220Y843280D01*
X979170Y849630D02*
X991870D01*
X972820Y843280D02*
X979170Y849630D01*
X972820Y830580D02*
Y843280D01*
X998220Y728980D02*
Y741680D01*
X991870Y722630D02*
X998220Y728980D01*
X972820D02*
X979170Y722630D01*
X991870D01*
Y748030D02*
X998220Y754380D01*
Y767080D01*
X991870Y773430D02*
X998220Y767080D01*
X979170Y773430D02*
X991870D01*
X972820Y767080D02*
X979170Y773430D01*
X972820Y754380D02*
Y767080D01*
Y754380D02*
X979170Y748030D01*
X991870D02*
X998220Y741680D01*
X979170Y748030D02*
X991870D01*
X972820Y741680D02*
X979170Y748030D01*
X972820Y728980D02*
Y741680D01*
X998220Y805180D02*
Y817880D01*
X991870Y798830D02*
X998220Y805180D01*
X972820D02*
X979170Y798830D01*
X991870Y773430D02*
X998220Y779780D01*
Y792480D01*
X991870Y798830D02*
X998220Y792480D01*
X979170Y798830D02*
X991870D01*
X972820Y792480D02*
X979170Y798830D01*
X972820Y779780D02*
Y792480D01*
Y779780D02*
X979170Y773430D01*
X991870Y824230D02*
X998220Y817880D01*
X979170Y824230D02*
X991870D01*
X972820Y817880D02*
X979170Y824230D01*
X972820Y805180D02*
Y817880D01*
X798830Y712470D02*
X811530D01*
X792480Y718820D02*
X798830Y712470D01*
X792480Y731520D02*
X798830Y737870D01*
X811530Y712470D02*
X817880Y718820D01*
Y731520D01*
X811530Y737870D02*
X817880Y731520D01*
X798830Y737870D02*
X811530D01*
X722630Y712470D02*
X735330D01*
X716280Y718820D02*
X722630Y712470D01*
X716280Y731520D02*
X722630Y737870D01*
X716280Y718820D02*
Y731520D01*
X741680Y718820D02*
X748030Y712470D01*
X760730D01*
X767080Y718820D01*
Y731520D01*
X760730Y737870D02*
X767080Y731520D01*
X748030Y737870D02*
X760730D01*
X741680Y731520D02*
X748030Y737870D01*
X735330Y712470D02*
X741680Y718820D01*
Y731520D01*
X735330Y737870D02*
X741680Y731520D01*
X722630Y737870D02*
X735330D01*
X767080Y718820D02*
X773430Y712470D01*
X786130D01*
X792480Y718820D01*
Y731520D01*
X786130Y737870D02*
X792480Y731520D01*
X773430Y737870D02*
X786130D01*
X767080Y731520D02*
X773430Y737870D01*
X882396Y782320D02*
X918464D01*
X882396Y802640D02*
X918464D01*
Y782320D02*
Y802640D01*
X882396Y782320D02*
Y802640D01*
X881126Y741680D02*
X917194D01*
X881126Y762000D02*
X917194D01*
Y741680D02*
Y762000D01*
X881126Y741680D02*
Y762000D01*
X932180Y776478D02*
Y790448D01*
X957580Y775970D02*
Y789940D01*
X923290Y726440D02*
X933196D01*
X923290Y840741D02*
X933196D01*
X969010Y728980D02*
Y838201D01*
X956564Y840741D02*
X966470D01*
X956564Y726440D02*
X966470D01*
X920750Y728980D02*
Y838201D01*
X938530Y781050D02*
X951230D01*
Y786130D01*
X938530D02*
X951230D01*
X938530Y781050D02*
Y786130D01*
Y777240D02*
X944880D01*
X951230D01*
X944880Y773430D02*
Y777240D01*
X938530Y789940D02*
X944880D01*
X951230D01*
X944880D02*
Y793750D01*
X825500Y710176D02*
Y746244D01*
X845820Y710176D02*
Y746244D01*
X825500Y710176D02*
X845820D01*
X825500Y746244D02*
X845820D01*
X877316Y703072D02*
X913384D01*
X877316Y682752D02*
X913384D01*
X877316D02*
Y703072D01*
X913384Y682752D02*
Y703072D01*
X961644Y682752D02*
X966470D01*
X961644Y703072D02*
X966724D01*
Y682752D02*
Y703072D01*
X925576Y682752D02*
Y703072D01*
X961644Y682752D02*
Y703072D01*
X925576D02*
X961644D01*
X925576Y682752D02*
X961644D01*
X632866Y745490D02*
X668934D01*
X632866Y725170D02*
X668934D01*
X632866D02*
Y745490D01*
X668934Y725170D02*
Y745490D01*
X632866Y720090D02*
X668934D01*
X632866Y699770D02*
X668934D01*
X632866D02*
Y720090D01*
X668934Y699770D02*
Y720090D01*
X657860Y779526D02*
Y815594D01*
X678180Y779526D02*
Y815594D01*
X657860Y779526D02*
X678180D01*
X657860Y815594D02*
X678180D01*
X703326Y853186D02*
X739394D01*
X703326Y832866D02*
X739394D01*
X703326D02*
Y853186D01*
X739394Y832866D02*
Y853186D01*
X679450Y832866D02*
Y868934D01*
X699770Y832866D02*
Y868934D01*
X679450Y832866D02*
X699770D01*
X679450Y868934D02*
X699770D01*
X652780Y832866D02*
Y868934D01*
X673100Y832866D02*
Y868934D01*
X652780Y832866D02*
X673100D01*
X652780Y868934D02*
X673100D01*
X535940Y833628D02*
X584200D01*
X535940D02*
Y858012D01*
X584200D01*
Y833628D02*
Y858012D01*
X530860Y833628D02*
Y858012D01*
Y833628D02*
X535940D01*
X530860Y858012D02*
X535940D01*
D13*
X788230Y765370D02*
X792130D01*
X788230D02*
Y769270D01*
Y833470D02*
Y837370D01*
X792130D01*
X856330D02*
X860230D01*
Y833470D02*
Y837370D01*
Y765370D02*
Y769270D01*
X856330Y765370D02*
X860230D01*
X700740Y826030D02*
X707540D01*
Y797030D02*
Y805380D01*
Y817680D02*
Y826030D01*
X700740Y797030D02*
X707540D01*
D14*
X878840Y727710D02*
Y742950D01*
X848360Y727710D02*
Y742950D01*
X553720Y859790D02*
Y875030D01*
X584200Y859790D02*
Y875030D01*
X746760Y748030D02*
Y763270D01*
X777240Y748030D02*
Y763270D01*
X739140Y764540D02*
Y779780D01*
X769620Y764540D02*
Y779780D01*
X810260Y873760D02*
Y889000D01*
X779780Y873760D02*
Y889000D01*
X810260Y857250D02*
Y872490D01*
X779780Y857250D02*
Y872490D01*
X861060Y850900D02*
Y866140D01*
X891540Y850900D02*
Y866140D01*
X887730Y722630D02*
Y737870D01*
X918210Y722630D02*
Y737870D01*
X650660Y797878D02*
Y827878D01*
X634404Y797878D02*
Y827878D01*
D15*
X559475Y896871D02*
X557782Y898564D01*
X554397D01*
X552704Y896871D01*
Y895178D01*
X554397Y893485D01*
X557782D01*
X559475Y891792D01*
Y890100D01*
X557782Y888407D01*
X554397D01*
X552704Y890100D01*
X562861Y898564D02*
X569632D01*
X566246D01*
Y888407D01*
X573017Y898564D02*
Y888407D01*
X579789D01*
X583174D02*
X586560D01*
X584867D01*
Y895178D01*
X583174D01*
X591638Y888407D02*
Y895178D01*
X596716D01*
X598409Y893485D01*
Y888407D01*
X601795D02*
Y898564D01*
Y891792D02*
X606873Y895178D01*
X601795Y891792D02*
X606873Y888407D01*
X611952Y886714D02*
X618723D01*
X622108Y895178D02*
X625494Y888407D01*
X628879Y895178D01*
X639036Y888407D02*
X632265D01*
X639036Y895178D01*
Y896871D01*
X637343Y898564D01*
X633958D01*
X632265Y896871D01*
X933454Y889002D02*
Y899158D01*
X938532D01*
X940225Y897466D01*
Y894080D01*
X938532Y892387D01*
X933454D01*
X936840D02*
X940225Y889002D01*
X943611D02*
X946996D01*
X945304D01*
Y899158D01*
X943611Y897466D01*
X958846Y899158D02*
X952075D01*
Y894080D01*
X955460Y895773D01*
X957153D01*
X958846Y894080D01*
Y890694D01*
X957153Y889002D01*
X953768D01*
X952075Y890694D01*
X972399Y715008D02*
Y713316D01*
X975784Y709930D01*
X979170Y713316D01*
Y715008D01*
X975784Y709930D02*
Y704852D01*
X982556D02*
X985941D01*
X984248D01*
Y715008D01*
X982556Y713316D01*
X1004824Y740238D02*
X1006517Y741931D01*
X1009902D01*
X1011595Y740238D01*
Y738545D01*
X1009902Y736852D01*
X1008210D01*
X1009902D01*
X1011595Y735160D01*
Y733467D01*
X1009902Y731774D01*
X1006517D01*
X1004824Y733467D01*
X1014981Y741931D02*
Y735160D01*
X1018366Y731774D01*
X1021752Y735160D01*
Y741931D01*
X1025137Y740238D02*
X1026830Y741931D01*
X1030216D01*
X1031909Y740238D01*
Y738545D01*
X1030216Y736852D01*
X1028523D01*
X1030216D01*
X1031909Y735160D01*
Y733467D01*
X1030216Y731774D01*
X1026830D01*
X1025137Y733467D01*
X915249Y899158D02*
Y889002D01*
X918634Y892387D01*
X922020Y889002D01*
Y899158D01*
X925406Y889002D02*
X928791D01*
X927098D01*
Y899158D01*
X925406Y897466D01*
X871646Y845818D02*
Y837354D01*
X873339Y835662D01*
X876724D01*
X878417Y837354D01*
Y845818D01*
X888574Y835662D02*
X881803D01*
X888574Y842433D01*
Y844126D01*
X886881Y845818D01*
X883496D01*
X881803Y844126D01*
X868678Y681646D02*
X858522D01*
Y686724D01*
X860214Y688417D01*
X863600D01*
X865293Y686724D01*
Y681646D01*
Y685032D02*
X868678Y688417D01*
Y698574D02*
Y691803D01*
X861907Y698574D01*
X860214D01*
X858522Y696881D01*
Y693496D01*
X860214Y691803D01*
Y701960D02*
X858522Y703652D01*
Y707038D01*
X860214Y708731D01*
X866986D01*
X868678Y707038D01*
Y703652D01*
X866986Y701960D01*
X860214D01*
X887734Y807722D02*
Y817878D01*
X892812D01*
X894505Y816186D01*
Y812800D01*
X892812Y811107D01*
X887734D01*
X891120D02*
X894505Y807722D01*
X897891D02*
X901276D01*
X899584D01*
Y817878D01*
X897891Y816186D01*
X906355Y809414D02*
X908048Y807722D01*
X911433D01*
X913126Y809414D01*
Y816186D01*
X911433Y817878D01*
X908048D01*
X906355Y816186D01*
Y814493D01*
X908048Y812800D01*
X913126D01*
X751838Y859794D02*
X741682D01*
Y864873D01*
X743374Y866565D01*
X746760D01*
X748453Y864873D01*
Y859794D01*
Y863180D02*
X751838Y866565D01*
Y869951D02*
Y873336D01*
Y871644D01*
X741682D01*
X743374Y869951D01*
Y878415D02*
X741682Y880108D01*
Y883493D01*
X743374Y885186D01*
X745067D01*
X746760Y883493D01*
X748453Y885186D01*
X750146D01*
X751838Y883493D01*
Y880108D01*
X750146Y878415D01*
X748453D01*
X746760Y880108D01*
X745067Y878415D01*
X743374D01*
X746760Y880108D02*
Y883493D01*
X890274Y767082D02*
Y777238D01*
X895352D01*
X897045Y775546D01*
Y772160D01*
X895352Y770467D01*
X890274D01*
X893660D02*
X897045Y767082D01*
X900431D02*
X903816D01*
X902124D01*
Y777238D01*
X900431Y775546D01*
X908895Y777238D02*
X915666D01*
Y775546D01*
X908895Y768774D01*
Y767082D01*
X825927Y889002D02*
Y899158D01*
X831005D01*
X832698Y897466D01*
Y894080D01*
X831005Y892387D01*
X825927D01*
X829313D02*
X832698Y889002D01*
X836084D02*
X839469D01*
X837776D01*
Y899158D01*
X836084Y897466D01*
X844548Y889002D02*
X847933D01*
X846240D01*
Y899158D01*
X844548Y897466D01*
X839468Y681646D02*
X829312D01*
Y686724D01*
X831004Y688417D01*
X834390D01*
X836083Y686724D01*
Y681646D01*
Y685032D02*
X839468Y688417D01*
X837776Y691803D02*
X839468Y693496D01*
Y696881D01*
X837776Y698574D01*
X831004D01*
X829312Y696881D01*
Y693496D01*
X831004Y691803D01*
X832697D01*
X834390Y693496D01*
Y698574D01*
X650238Y776396D02*
X640082D01*
Y781474D01*
X641774Y783167D01*
X645160D01*
X646853Y781474D01*
Y776396D01*
Y779782D02*
X650238Y783167D01*
X641774Y786553D02*
X640082Y788246D01*
Y791631D01*
X641774Y793324D01*
X643467D01*
X645160Y791631D01*
X646853Y793324D01*
X648546D01*
X650238Y791631D01*
Y788246D01*
X648546Y786553D01*
X646853D01*
X645160Y788246D01*
X643467Y786553D01*
X641774D01*
X645160Y788246D02*
Y791631D01*
X707816Y858522D02*
Y868678D01*
X712894D01*
X714587Y866986D01*
Y863600D01*
X712894Y861907D01*
X707816D01*
X711202D02*
X714587Y858522D01*
X717973Y868678D02*
X724744D01*
Y866986D01*
X717973Y860214D01*
Y858522D01*
X678606Y880112D02*
Y890268D01*
X683684D01*
X685377Y888576D01*
Y885190D01*
X683684Y883497D01*
X678606D01*
X681992D02*
X685377Y880112D01*
X695534Y890268D02*
X692148Y888576D01*
X688763Y885190D01*
Y881804D01*
X690456Y880112D01*
X693841D01*
X695534Y881804D01*
Y883497D01*
X693841Y885190D01*
X688763D01*
X644976Y680722D02*
Y690878D01*
X650054D01*
X651747Y689186D01*
Y685800D01*
X650054Y684107D01*
X644976D01*
X648362D02*
X651747Y680722D01*
X661904Y690878D02*
X655133D01*
Y685800D01*
X658518Y687493D01*
X660211D01*
X661904Y685800D01*
Y682414D01*
X660211Y680722D01*
X656825D01*
X655133Y682414D01*
X675642Y733634D02*
X685798D01*
Y728556D01*
X684106Y726863D01*
X680720D01*
X679027Y728556D01*
Y733634D01*
Y730248D02*
X675642Y726863D01*
Y718399D02*
X685798D01*
X680720Y723477D01*
Y716706D01*
X613836Y861062D02*
Y871218D01*
X618914D01*
X620607Y869526D01*
Y866140D01*
X618914Y864447D01*
X613836D01*
X617222D02*
X620607Y861062D01*
X623993Y869526D02*
X625686Y871218D01*
X629071D01*
X630764Y869526D01*
Y867833D01*
X629071Y866140D01*
X627378D01*
X629071D01*
X630764Y864447D01*
Y862754D01*
X629071Y861062D01*
X625686D01*
X623993Y862754D01*
X675642Y759034D02*
X685798D01*
Y753956D01*
X684106Y752263D01*
X680720D01*
X679027Y753956D01*
Y759034D01*
Y755648D02*
X675642Y752263D01*
Y742106D02*
Y748877D01*
X682413Y742106D01*
X684106D01*
X685798Y743799D01*
Y747184D01*
X684106Y748877D01*
X652359Y880112D02*
Y890268D01*
X657437D01*
X659130Y888576D01*
Y885190D01*
X657437Y883497D01*
X652359D01*
X655744D02*
X659130Y880112D01*
X662516D02*
X665901D01*
X664208D01*
Y890268D01*
X662516Y888576D01*
X732790Y808144D02*
Y814916D01*
X731097Y816608D01*
X727712D01*
X726019Y814916D01*
Y808144D01*
X727712Y806452D01*
X731097D01*
X729404Y809837D02*
X732790Y806452D01*
X731097D02*
X732790Y808144D01*
X736176Y806452D02*
X739561D01*
X737868D01*
Y816608D01*
X736176Y814916D01*
X717976Y693422D02*
Y703578D01*
X723054D01*
X724747Y701886D01*
Y698500D01*
X723054Y696807D01*
X717976D01*
X734904Y693422D02*
X728133D01*
X734904Y700193D01*
Y701886D01*
X733211Y703578D01*
X729826D01*
X728133Y701886D01*
X1001609Y706122D02*
Y716278D01*
X1006687D01*
X1008380Y714586D01*
Y711200D01*
X1006687Y709507D01*
X1001609D01*
X1011766Y706122D02*
X1015151D01*
X1013458D01*
Y716278D01*
X1011766Y714586D01*
X638810Y850898D02*
X632039D01*
Y845820D01*
X635424D01*
X632039D01*
Y840742D01*
X642196D02*
X645581D01*
X643888D01*
Y850898D01*
X642196Y849206D01*
X732788Y799674D02*
X722632D01*
Y794596D01*
X724324Y792903D01*
X731096D01*
X732788Y794596D01*
Y799674D01*
X722632Y782746D02*
Y789517D01*
X729403Y782746D01*
X731096D01*
X732788Y784439D01*
Y787824D01*
X731096Y789517D01*
X857675Y722206D02*
X855983Y723898D01*
X852597D01*
X850904Y722206D01*
Y715434D01*
X852597Y713742D01*
X855983D01*
X857675Y715434D01*
X861061Y713742D02*
X864446D01*
X862754D01*
Y723898D01*
X861061Y722206D01*
X869525D02*
X871218Y723898D01*
X874603D01*
X876296Y722206D01*
Y715434D01*
X874603Y713742D01*
X871218D01*
X869525Y715434D01*
Y722206D01*
X599016Y872913D02*
X600708Y874606D01*
Y877991D01*
X599016Y879684D01*
X592244D01*
X590552Y877991D01*
Y874606D01*
X592244Y872913D01*
Y869527D02*
X590552Y867834D01*
Y864449D01*
X592244Y862756D01*
X599016D01*
X600708Y864449D01*
Y867834D01*
X599016Y869527D01*
X597323D01*
X595630Y867834D01*
Y862756D01*
X762847Y894926D02*
X761154Y896618D01*
X757769D01*
X756076Y894926D01*
Y888154D01*
X757769Y886462D01*
X761154D01*
X762847Y888154D01*
X766233Y894926D02*
X767926Y896618D01*
X771311D01*
X773004Y894926D01*
Y893233D01*
X771311Y891540D01*
X773004Y889847D01*
Y888154D01*
X771311Y886462D01*
X767926D01*
X766233Y888154D01*
Y889847D01*
X767926Y891540D01*
X766233Y893233D01*
Y894926D01*
X767926Y891540D02*
X771311D01*
X764964Y864447D02*
X763272Y862754D01*
Y859369D01*
X764964Y857676D01*
X771736D01*
X773428Y859369D01*
Y862754D01*
X771736Y864447D01*
X763272Y867833D02*
Y874604D01*
X764964D01*
X771736Y867833D01*
X773428D01*
X732367Y751416D02*
X730674Y753108D01*
X727289D01*
X725596Y751416D01*
Y744644D01*
X727289Y742952D01*
X730674D01*
X732367Y744644D01*
X742524Y753108D02*
X739138Y751416D01*
X735753Y748030D01*
Y744644D01*
X737446Y742952D01*
X740831D01*
X742524Y744644D01*
Y746337D01*
X740831Y748030D01*
X735753D01*
X726864Y764117D02*
X725172Y762424D01*
Y759039D01*
X726864Y757346D01*
X733636D01*
X735328Y759039D01*
Y762424D01*
X733636Y764117D01*
X725172Y774274D02*
Y767503D01*
X730250D01*
X728557Y770888D01*
Y772581D01*
X730250Y774274D01*
X733636D01*
X735328Y772581D01*
Y769196D01*
X733636Y767503D01*
X905087Y861906D02*
X903394Y863598D01*
X900009D01*
X898316Y861906D01*
Y855134D01*
X900009Y853442D01*
X903394D01*
X905087Y855134D01*
X915244Y853442D02*
X908473D01*
X915244Y860213D01*
Y861906D01*
X913551Y863598D01*
X910166D01*
X908473Y861906D01*
X911860Y715856D02*
X910167Y717548D01*
X906782D01*
X905089Y715856D01*
Y709084D01*
X906782Y707392D01*
X910167D01*
X911860Y709084D01*
X915246Y707392D02*
X918631D01*
X916938D01*
Y717548D01*
X915246Y715856D01*
D16*
X541441Y696804D02*
X539748Y698497D01*
X536363D01*
X534670Y696804D01*
Y695111D01*
X536363Y693418D01*
X539748D01*
X541441Y691726D01*
Y690033D01*
X539748Y688340D01*
X536363D01*
X534670Y690033D01*
X551598Y698497D02*
X544827D01*
Y693418D01*
X548212D01*
X544827D01*
Y688340D01*
X554983Y698497D02*
Y688340D01*
Y691726D01*
X561755Y698497D01*
X556676Y693418D01*
X561755Y688340D01*
X565140Y698497D02*
X571911D01*
Y696804D01*
X565140Y690033D01*
Y688340D01*
X571911D01*
X575297Y698497D02*
Y688340D01*
X580375D01*
X582068Y690033D01*
Y696804D01*
X580375Y698497D01*
X575297D01*
X585454Y688340D02*
Y698497D01*
X588839Y695111D01*
X592225Y698497D01*
Y688340D01*
X595610D02*
Y698497D01*
X600689D01*
X602382Y696804D01*
Y693418D01*
X600689Y691726D01*
X595610D01*
X598996D02*
X602382Y688340D01*
M02*
