G04*
G04 #@! TF.GenerationSoftware,Altium Limited,Altium Designer,24.3.1 (35)*
G04*
G04 Layer_Color=128*
%FSLAX44Y44*%
%MOMM*%
G71*
G04*
G04 #@! TF.SameCoordinates,268BF101-0F90-4EF0-BC03-07382AAEC2E5*
G04*
G04*
G04 #@! TF.FilePolarity,Positive*
G04*
G01*
G75*
%ADD13C,0.1270*%
D13*
X866880Y885190D02*
X876880D01*
X871880Y880190D02*
Y890190D01*
X892280Y885190D02*
X902280D01*
X897280Y880190D02*
Y890190D01*
X980520Y836930D02*
X990520D01*
X985520Y831930D02*
Y841930D01*
X980520Y811530D02*
X990520D01*
X985520Y806530D02*
Y816530D01*
X980520Y786130D02*
X990520D01*
X985520Y781130D02*
Y791130D01*
X980520Y760730D02*
X990520D01*
X985520Y755730D02*
Y765730D01*
X980520Y735330D02*
X990520D01*
X985520Y730330D02*
Y740330D01*
X800180Y725170D02*
X810180D01*
X805180Y720170D02*
Y730170D01*
X774780Y725170D02*
X784780D01*
X779780Y720170D02*
Y730170D01*
X749380Y725170D02*
X759380D01*
X754380Y720170D02*
Y730170D01*
X723980Y725170D02*
X733980D01*
X728980Y720170D02*
Y730170D01*
X580470Y751020D02*
X590470D01*
X585470Y746020D02*
Y756020D01*
X580470Y795020D02*
X590470D01*
X585470Y790020D02*
Y800020D01*
X594995Y754380D02*
X598805D01*
X596900Y752475D02*
Y756285D01*
X539115Y791210D02*
X542925D01*
X541020Y789305D02*
Y793115D01*
X596265Y801370D02*
X600075D01*
X598170Y799465D02*
Y803275D01*
X865505Y840740D02*
X869315D01*
X867410Y838835D02*
Y842645D01*
X884555Y829310D02*
X888365D01*
X886460Y827405D02*
Y831215D01*
X893445Y836930D02*
X897255D01*
X895350Y835025D02*
Y838835D01*
X640627Y836210D02*
X644437D01*
X642532Y834305D02*
Y838115D01*
X1015365Y871220D02*
X1019175D01*
X1017270Y869315D02*
Y873125D01*
X559435Y881380D02*
X563245D01*
X561340Y879475D02*
Y883285D01*
X716915Y824230D02*
X720725D01*
X718820Y822325D02*
Y826135D01*
X798195Y783590D02*
X802005D01*
X800100Y781685D02*
Y785495D01*
X828675Y791210D02*
X832485D01*
X830580Y789305D02*
Y793115D01*
X813435Y774700D02*
X817245D01*
X815340Y772795D02*
Y776605D01*
X822325Y802640D02*
X826135D01*
X824230Y800735D02*
Y804545D01*
X846455Y789940D02*
X850265D01*
X848360Y788035D02*
Y791845D01*
X915035Y863600D02*
X918845D01*
X916940Y861695D02*
Y865505D01*
X915035Y850900D02*
X918845D01*
X916940Y848995D02*
Y852805D01*
X805815Y803910D02*
X809625D01*
X807720Y802005D02*
Y805815D01*
X960755Y735330D02*
X964565D01*
X962660Y733425D02*
Y737235D01*
X813435Y894080D02*
X817245D01*
X815340Y892175D02*
Y895985D01*
X817245Y744220D02*
X821055D01*
X819150Y742315D02*
Y746125D01*
X884555Y712470D02*
X888365D01*
X886460Y710565D02*
Y714375D01*
X702945Y875030D02*
X706755D01*
X704850Y873125D02*
Y876935D01*
X763905Y878840D02*
X767715D01*
X765810Y876935D02*
Y880745D01*
X696595Y703580D02*
X700405D01*
X698500Y701675D02*
Y705485D01*
X629285Y878840D02*
X633095D01*
X631190Y876935D02*
Y880745D01*
X616585Y701040D02*
X620395D01*
X618490Y699135D02*
Y702945D01*
M02*
