G04*
G04 #@! TF.GenerationSoftware,Altium Limited,Altium Designer,24.3.1 (35)*
G04*
G04 Layer_Color=8421504*
%FSLAX44Y44*%
%MOMM*%
G71*
G04*
G04 #@! TF.SameCoordinates,268BF101-0F90-4EF0-BC03-07382AAEC2E5*
G04*
G04*
G04 #@! TF.FilePolarity,Positive*
G04*
G01*
G75*
G04:AMPARAMS|DCode=17|XSize=0.28mm|YSize=1.56mm|CornerRadius=0.07mm|HoleSize=0mm|Usage=FLASHONLY|Rotation=270.000|XOffset=0mm|YOffset=0mm|HoleType=Round|Shape=RoundedRectangle|*
%AMROUNDEDRECTD17*
21,1,0.2800,1.4200,0,0,270.0*
21,1,0.1400,1.5600,0,0,270.0*
1,1,0.1400,-0.7100,-0.0700*
1,1,0.1400,-0.7100,0.0700*
1,1,0.1400,0.7100,0.0700*
1,1,0.1400,0.7100,-0.0700*
%
%ADD17ROUNDEDRECTD17*%
%ADD18R,1.3000X1.6000*%
G04:AMPARAMS|DCode=19|XSize=0.28mm|YSize=1.56mm|CornerRadius=0.07mm|HoleSize=0mm|Usage=FLASHONLY|Rotation=180.000|XOffset=0mm|YOffset=0mm|HoleType=Round|Shape=RoundedRectangle|*
%AMROUNDEDRECTD19*
21,1,0.2800,1.4200,0,0,180.0*
21,1,0.1400,1.5600,0,0,180.0*
1,1,0.1400,-0.0700,0.7100*
1,1,0.1400,0.0700,0.7100*
1,1,0.1400,0.0700,-0.7100*
1,1,0.1400,-0.0700,-0.7100*
%
%ADD19ROUNDEDRECTD19*%
%ADD20R,0.9500X1.3000*%
%ADD21R,1.6000X1.3000*%
%ADD22R,1.1500X0.6000*%
%ADD23R,1.9304X5.3340*%
G04:AMPARAMS|DCode=24|XSize=1.26mm|YSize=0.59mm|CornerRadius=0.0738mm|HoleSize=0mm|Usage=FLASHONLY|Rotation=0.000|XOffset=0mm|YOffset=0mm|HoleType=Round|Shape=RoundedRectangle|*
%AMROUNDEDRECTD24*
21,1,1.2600,0.4425,0,0,0.0*
21,1,1.1125,0.5900,0,0,0.0*
1,1,0.1475,0.5563,-0.2213*
1,1,0.1475,-0.5563,-0.2213*
1,1,0.1475,-0.5563,0.2213*
1,1,0.1475,0.5563,0.2213*
%
%ADD24ROUNDEDRECTD24*%
%ADD25R,1.3000X0.9500*%
%ADD26R,2.5000X0.5238*%
%ADD27R,2.5000X2.0000*%
%ADD28R,1.6000X2.0000*%
D17*
X782430Y793870D02*
D03*
Y773870D02*
D03*
Y778870D02*
D03*
Y783870D02*
D03*
Y788870D02*
D03*
Y798870D02*
D03*
Y803870D02*
D03*
Y808870D02*
D03*
Y813870D02*
D03*
Y818870D02*
D03*
Y823870D02*
D03*
Y828870D02*
D03*
X866030D02*
D03*
Y823870D02*
D03*
Y818870D02*
D03*
Y813870D02*
D03*
Y808870D02*
D03*
Y803870D02*
D03*
Y798870D02*
D03*
Y793870D02*
D03*
Y788870D02*
D03*
Y783870D02*
D03*
Y778870D02*
D03*
Y773870D02*
D03*
D18*
X660400Y735330D02*
D03*
Y759460D02*
D03*
X847700Y873760D02*
D03*
X828700D02*
D03*
X641400Y759460D02*
D03*
X992480Y873760D02*
D03*
X973480D02*
D03*
X953110D02*
D03*
X934110D02*
D03*
X596290Y845820D02*
D03*
X615290D02*
D03*
X909930Y792480D02*
D03*
X890930D02*
D03*
X908660Y751840D02*
D03*
X889660D02*
D03*
X885850Y692912D02*
D03*
X904850D02*
D03*
X934110D02*
D03*
X953110D02*
D03*
X641400Y735330D02*
D03*
Y709930D02*
D03*
X660400D02*
D03*
X711860Y843026D02*
D03*
X730860D02*
D03*
D19*
X851730Y759570D02*
D03*
X846730D02*
D03*
X841730D02*
D03*
X836730D02*
D03*
X831730D02*
D03*
X826730D02*
D03*
X821730D02*
D03*
X816730D02*
D03*
X811730D02*
D03*
X806730D02*
D03*
X801730D02*
D03*
X796730D02*
D03*
Y843170D02*
D03*
X801730D02*
D03*
X806730D02*
D03*
X811730D02*
D03*
X816730D02*
D03*
X821730D02*
D03*
X826730D02*
D03*
X831730D02*
D03*
X836730D02*
D03*
X841730D02*
D03*
X846730D02*
D03*
X851730D02*
D03*
D20*
X853600Y735330D02*
D03*
X873600Y735330D02*
D03*
X578960Y867410D02*
D03*
X558960Y867410D02*
D03*
X772000Y755650D02*
D03*
X752000Y755650D02*
D03*
X764380Y772160D02*
D03*
X744380Y772160D02*
D03*
X785020Y881380D02*
D03*
X805020Y881380D02*
D03*
X785020Y864870D02*
D03*
X805020Y864870D02*
D03*
X886300Y858520D02*
D03*
X866300Y858520D02*
D03*
X912970Y730250D02*
D03*
X892970Y730250D02*
D03*
D21*
X760730Y822350D02*
D03*
Y841350D02*
D03*
X835660Y718710D02*
D03*
Y737710D02*
D03*
X668020Y788060D02*
D03*
Y807060D02*
D03*
X689610Y841400D02*
D03*
Y860400D02*
D03*
X662940Y841400D02*
D03*
Y860400D02*
D03*
D22*
X688520Y774700D02*
D03*
X711020Y784200D02*
D03*
Y765200D02*
D03*
D23*
X944880Y735330D02*
D03*
Y831851D02*
D03*
D24*
X710840Y811530D02*
D03*
X691240Y802030D02*
D03*
Y821030D02*
D03*
D25*
X642532Y802878D02*
D03*
Y822878D02*
D03*
D26*
X614270Y789020D02*
D03*
Y781020D02*
D03*
Y773020D02*
D03*
Y765020D02*
D03*
Y757020D02*
D03*
D27*
X611270Y817520D02*
D03*
Y728520D02*
D03*
X556770Y817520D02*
D03*
Y728520D02*
D03*
D28*
X574070Y845820D02*
D03*
X546070D02*
D03*
M02*
