G04*
G04 #@! TF.GenerationSoftware,Altium Limited,Altium Designer,24.3.1 (35)*
G04*
G04 Layer_Color=16711935*
%FSLAX44Y44*%
%MOMM*%
G71*
G04*
G04 #@! TF.SameCoordinates,268BF101-0F90-4EF0-BC03-07382AAEC2E5*
G04*
G04*
G04 #@! TF.FilePolarity,Positive*
G04*
G01*
G75*
%ADD13C,0.1270*%
%ADD16C,0.2540*%
D13*
X534670Y904875D02*
G03*
X534221Y904689I0J-635D01*
G01*
X534670Y904875D02*
G03*
X534221Y904689I0J-635D01*
G01*
X524061Y894529D02*
G03*
X523875Y894080I449J-449D01*
G01*
X524061Y894529D02*
G03*
X523875Y894080I449J-449D01*
G01*
X532951Y675191D02*
G03*
X533400Y675005I449J449D01*
G01*
X523875Y684530D02*
G03*
X524061Y684081I635J0D01*
G01*
X523875Y684530D02*
G03*
X524061Y684081I635J0D01*
G01*
X532951Y675191D02*
G03*
X533400Y675005I449J449D01*
G01*
X534670Y904875D02*
X1026795D01*
X524061Y894529D02*
X534221Y904689D01*
X523875Y684530D02*
Y894080D01*
X533137Y675005D02*
X1033780D01*
X524061Y684081D02*
X533137Y675005D01*
D16*
X1033780Y675640D02*
X1040130Y681990D01*
X1033780Y904240D02*
X1040130Y897890D01*
X534670Y904240D02*
X1033780D01*
X910908Y675640D02*
X1033780D01*
X524510Y684530D02*
X533400Y675640D01*
X665163D01*
X910908D01*
X1040130Y681990D02*
Y897890D01*
X524510Y894080D02*
X534670Y904240D01*
X524510Y684530D02*
Y894080D01*
M02*
