G04*
G04 #@! TF.GenerationSoftware,Altium Limited,Altium Designer,24.3.1 (35)*
G04*
G04 Layer_Color=32896*
%FSLAX44Y44*%
%MOMM*%
G71*
G04*
G04 #@! TF.SameCoordinates,268BF101-0F90-4EF0-BC03-07382AAEC2E5*
G04*
G04*
G04 #@! TF.FilePolarity,Positive*
G04*
G01*
G75*
%ADD10C,0.2000*%
%ADD12C,0.2032*%
%ADD14C,0.1000*%
%ADD15C,0.1524*%
%ADD58R,2.7000X0.6500*%
%ADD59R,2.2000X0.2000*%
D10*
X884800Y864020D02*
X887800D01*
X884800Y853020D02*
X887800D01*
D12*
X965454Y746760D02*
Y767080D01*
X929386Y746760D02*
Y767080D01*
X965454D01*
X929386Y746760D02*
X965454D01*
Y824230D02*
Y844550D01*
X929386Y824230D02*
Y844550D01*
X965454D01*
X929386Y824230D02*
X965454D01*
Y797560D02*
Y817880D01*
X929386Y797560D02*
Y817880D01*
X965454D01*
X929386Y797560D02*
X965454D01*
X817626Y819150D02*
X853694D01*
X817626Y839470D02*
X853694D01*
X817626Y819150D02*
Y839470D01*
X853694Y819150D02*
Y839470D01*
X817626Y868045D02*
X853694D01*
X817626Y847725D02*
X853694D01*
Y868045D01*
X817626Y847725D02*
Y868045D01*
Y896620D02*
X853694D01*
X817626Y876300D02*
X853694D01*
Y896620D01*
X817626Y876300D02*
Y896620D01*
X698651Y807527D02*
Y842127D01*
X636172Y807527D02*
Y842127D01*
X698651D01*
X636172Y807527D02*
X698651D01*
X669036Y773938D02*
X697484D01*
Y719584D02*
Y773938D01*
X669036Y719076D02*
X697484D01*
X669036Y719584D02*
Y773938D01*
X636016D02*
X664464D01*
Y719584D02*
Y773938D01*
X636016Y719076D02*
X664464D01*
X636016Y719584D02*
Y773938D01*
D14*
X871060Y850900D02*
Y866140D01*
X901540Y850900D02*
Y866140D01*
D15*
X698500Y884171D02*
Y875707D01*
X696807Y874014D01*
X693422D01*
X691729Y875707D01*
Y884171D01*
X688343Y874014D02*
X684958D01*
X686650D01*
Y884171D01*
X688343Y882478D01*
X807293Y881382D02*
Y891538D01*
X802215D01*
X800522Y889846D01*
Y886460D01*
X802215Y884767D01*
X807293D01*
X803907D02*
X800522Y881382D01*
X790365D02*
X797136D01*
X790365Y888153D01*
Y889846D01*
X792058Y891538D01*
X795444D01*
X797136Y889846D01*
X786980Y881382D02*
X783594D01*
X785287D01*
Y891538D01*
X786980Y889846D01*
X948686Y850902D02*
Y861058D01*
X943607D01*
X941915Y859366D01*
Y855980D01*
X943607Y854287D01*
X948686D01*
X945300D02*
X941915Y850902D01*
X938529D02*
X935144D01*
X936836D01*
Y861058D01*
X938529Y859366D01*
X923294Y861058D02*
X926680Y859366D01*
X930065Y855980D01*
Y852594D01*
X928372Y850902D01*
X924987D01*
X923294Y852594D01*
Y854287D01*
X924987Y855980D01*
X930065D01*
X948686Y778512D02*
Y788668D01*
X943607D01*
X941915Y786976D01*
Y783590D01*
X943607Y781897D01*
X948686D01*
X945300D02*
X941915Y778512D01*
X938529D02*
X935144D01*
X936836D01*
Y788668D01*
X938529Y786976D01*
X924987Y778512D02*
Y788668D01*
X930065Y783590D01*
X923294D01*
X948686Y726442D02*
Y736598D01*
X943607D01*
X941915Y734906D01*
Y731520D01*
X943607Y729827D01*
X948686D01*
X945300D02*
X941915Y726442D01*
X938529D02*
X935144D01*
X936836D01*
Y736598D01*
X938529Y734906D01*
X930065D02*
X928372Y736598D01*
X924987D01*
X923294Y734906D01*
Y733213D01*
X924987Y731520D01*
X926680D01*
X924987D01*
X923294Y729827D01*
Y728134D01*
X924987Y726442D01*
X928372D01*
X930065Y728134D01*
X808986Y822962D02*
Y833118D01*
X803907D01*
X802215Y831426D01*
Y828040D01*
X803907Y826347D01*
X808986D01*
X805600D02*
X802215Y822962D01*
X798829D02*
X795444D01*
X797136D01*
Y833118D01*
X798829Y831426D01*
X783594Y822962D02*
X790365D01*
X783594Y829733D01*
Y831426D01*
X785287Y833118D01*
X788672D01*
X790365Y831426D01*
X808986Y852172D02*
Y862328D01*
X803907D01*
X802215Y860636D01*
Y857250D01*
X803907Y855557D01*
X808986D01*
X805600D02*
X802215Y852172D01*
X798829D02*
X795444D01*
X797136D01*
Y862328D01*
X798829Y860636D01*
X790365D02*
X788672Y862328D01*
X785287D01*
X783594Y860636D01*
Y853864D01*
X785287Y852172D01*
X788672D01*
X790365Y853864D01*
Y860636D01*
X890692Y842856D02*
X892385Y844548D01*
X895770D01*
X897463Y842856D01*
Y836084D01*
X895770Y834392D01*
X892385D01*
X890692Y836084D01*
X887306Y834392D02*
X883921D01*
X885614D01*
Y844548D01*
X887306Y842856D01*
X878842Y834392D02*
X875457D01*
X877150D01*
Y844548D01*
X878842Y842856D01*
X681563Y697911D02*
X679870Y696218D01*
X676485D01*
X674792Y697911D01*
Y704682D01*
X676485Y706375D01*
X679870D01*
X681563Y704682D01*
X690027Y706375D02*
Y696218D01*
X684949Y701296D01*
X691720D01*
X648543Y697911D02*
X646850Y696218D01*
X643465D01*
X641772Y697911D01*
Y704682D01*
X643465Y706375D01*
X646850D01*
X648543Y704682D01*
X651929Y697911D02*
X653622Y696218D01*
X657007D01*
X658700Y697911D01*
Y699604D01*
X657007Y701296D01*
X655314D01*
X657007D01*
X658700Y702989D01*
Y704682D01*
X657007Y706375D01*
X653622D01*
X651929Y704682D01*
D58*
X683260Y771702D02*
D03*
X650240D02*
D03*
D59*
X683182Y717534D02*
D03*
X683260Y775452D02*
D03*
X650162Y717534D02*
D03*
X650240Y775452D02*
D03*
M02*
