M48
;Layer_Color=9474304
;FILE_FORMAT=4:4
METRIC,LZ
;TYPE=PLATED
T01F00S00C0.3810
T02F00S00C1.0000
;TYPE=NON_PLATED
T03F00S00C1.0000
%
T01
X0081915Y0074422
X0081534Y007747
X008001Y0078359
X0083058Y0079121
X0084836Y0078994
X0088646Y0071247
X0096266Y0073533
X006985Y0070358
X0061849Y0070104
X005969Y0075438
X0054102Y0079121
X0059817Y0080137
X00642532Y0083621
X0063119Y0087884
X0056134Y0088138
X0070485Y0087503
X0071882Y0082423
X0076581Y0087884
X0081534Y0089408
X0080772Y0080391
X0082423Y0080264
X0086741Y0084074
X0088646Y0082931
X0089535Y0083693
X0091694Y008509
Y008636
X0101727Y0087122
T02
X0080518Y0072517
X0098552Y0073533
Y0076073
Y0078613
X0077978Y0072517
X0075438
X0072898
X0087188Y0088519
X0089728
X0098552Y0083693
Y0081153
T03
X0058547Y0075102
Y0079502
M30
